<svg width="1440" height="98" viewBox="0 0 1440 98" fill="none" xmlns="http://www.w3.org/2000/svg">
<g opacity="0.3">
<path d="M25.9138 63.8874V60.2154H17.154V63.8874H9.24975V97.9993H25.948V63.8874H25.9138ZM25.1268 97.1757H10.071V64.711H17.9753V61.039H25.0926V64.711H25.1268V97.1757Z" fill="#949699"/>
<path d="M14.5993 67.2849H11.5649V68.1085H14.5993V67.2849Z" fill="#949699"/>
<path d="M19.1161 67.2849H16.0817V68.1085H19.1161V67.2849Z" fill="#949699"/>
<path d="M23.6328 67.2849H20.5984V68.1085H23.6328V67.2849Z" fill="#949699"/>
<path d="M14.5993 70.8539H11.5649V71.6775H14.5993V70.8539Z" fill="#949699"/>
<path d="M19.1161 70.8539H16.0817V71.6775H19.1161V70.8539Z" fill="#949699"/>
<path d="M23.6328 70.8539H20.5984V71.6775H23.6328V70.8539Z" fill="#949699"/>
<path d="M14.5993 74.423H11.5649V75.2466H14.5993V74.423Z" fill="#949699"/>
<path d="M19.1161 74.423H16.0817V75.2466H19.1161V74.423Z" fill="#949699"/>
<path d="M23.6328 74.423H20.5984V75.2466H23.6328V74.423Z" fill="#949699"/>
<path d="M14.5993 77.992H11.5649V78.8157H14.5993V77.992Z" fill="#949699"/>
<path d="M19.1161 77.992H16.0817V78.8157H19.1161V77.992Z" fill="#949699"/>
<path d="M23.6328 77.992H20.5984V78.8157H23.6328V77.992Z" fill="#949699"/>
<path d="M14.5993 81.5611H11.5649V82.3847H14.5993V81.5611Z" fill="#949699"/>
<path d="M19.1161 81.5611H16.0817V82.3847H19.1161V81.5611Z" fill="#949699"/>
<path d="M23.6328 81.5611H20.5984V82.3847H23.6328V81.5611Z" fill="#949699"/>
<path d="M14.5993 85.1301H11.5649V85.9538H14.5993V85.1301Z" fill="#949699"/>
<path d="M19.1161 85.1301H16.0817V85.9538H19.1161V85.1301Z" fill="#949699"/>
<path d="M23.6328 85.1301H20.5984V85.9538H23.6328V85.1301Z" fill="#949699"/>
<path d="M14.5993 88.6992H11.5649V89.5228H14.5993V88.6992Z" fill="#949699"/>
<path d="M19.1161 88.6992H16.0817V89.5228H19.1161V88.6992Z" fill="#949699"/>
<path d="M23.6328 88.6992H20.5984V89.5228H23.6328V88.6992Z" fill="#949699"/>
<path d="M14.5993 92.2682H11.5649V93.0919H14.5993V92.2682Z" fill="#949699"/>
<path d="M19.1161 92.2682H16.0817V93.0919H19.1161V92.2682Z" fill="#949699"/>
<path d="M23.6328 92.2682H20.5984V93.0919H23.6328V92.2682Z" fill="#949699"/>
<path d="M737.914 63.8874V60.2154H729.154V63.8874H721.25V97.9993H737.948V63.8874H737.914ZM737.127 97.1757H722.071V64.711H729.975V61.039H737.093V64.711H737.127V97.1757Z" fill="#949699"/>
<path d="M726.599 67.2849H723.565V68.1085H726.599V67.2849Z" fill="#949699"/>
<path d="M731.116 67.2849H728.082V68.1085H731.116V67.2849Z" fill="#949699"/>
<path d="M735.633 67.2849H732.598V68.1085H735.633V67.2849Z" fill="#949699"/>
<path d="M726.599 70.8539H723.565V71.6775H726.599V70.8539Z" fill="#949699"/>
<path d="M731.116 70.8539H728.082V71.6775H731.116V70.8539Z" fill="#949699"/>
<path d="M735.633 70.8539H732.598V71.6775H735.633V70.8539Z" fill="#949699"/>
<path d="M726.599 74.423H723.565V75.2466H726.599V74.423Z" fill="#949699"/>
<path d="M731.116 74.423H728.082V75.2466H731.116V74.423Z" fill="#949699"/>
<path d="M735.633 74.423H732.598V75.2466H735.633V74.423Z" fill="#949699"/>
<path d="M726.599 77.992H723.565V78.8157H726.599V77.992Z" fill="#949699"/>
<path d="M731.116 77.992H728.082V78.8157H731.116V77.992Z" fill="#949699"/>
<path d="M735.633 77.992H732.598V78.8157H735.633V77.992Z" fill="#949699"/>
<path d="M726.599 81.5611H723.565V82.3847H726.599V81.5611Z" fill="#949699"/>
<path d="M731.116 81.5611H728.082V82.3847H731.116V81.5611Z" fill="#949699"/>
<path d="M735.633 81.5611H732.598V82.3847H735.633V81.5611Z" fill="#949699"/>
<path d="M726.599 85.1301H723.565V85.9538H726.599V85.1301Z" fill="#949699"/>
<path d="M731.116 85.1301H728.082V85.9538H731.116V85.1301Z" fill="#949699"/>
<path d="M735.633 85.1301H732.598V85.9538H735.633V85.1301Z" fill="#949699"/>
<path d="M726.599 88.6992H723.565V89.5228H726.599V88.6992Z" fill="#949699"/>
<path d="M731.116 88.6992H728.082V89.5228H731.116V88.6992Z" fill="#949699"/>
<path d="M735.633 88.6992H732.598V89.5228H735.633V88.6992Z" fill="#949699"/>
<path d="M726.599 92.2682H723.565V93.0919H726.599V92.2682Z" fill="#949699"/>
<path d="M731.116 92.2682H728.082V93.0919H731.116V92.2682Z" fill="#949699"/>
<path d="M735.633 92.2682H732.598V93.0919H735.633V92.2682Z" fill="#949699"/>
<path d="M382.301 63.8874V60.2154H373.541V63.8874H365.637V97.9993H382.335V63.8874H382.301ZM381.514 97.1757H366.458V64.711H374.362V61.039H381.48V64.711H381.514V97.1757Z" fill="#949699"/>
<path d="M370.986 67.2849H367.952V68.1085H370.986V67.2849Z" fill="#949699"/>
<path d="M375.503 67.2849H372.469V68.1085H375.503V67.2849Z" fill="#949699"/>
<path d="M380.02 67.2849H376.986V68.1085H380.02V67.2849Z" fill="#949699"/>
<path d="M370.986 70.8539H367.952V71.6775H370.986V70.8539Z" fill="#949699"/>
<path d="M375.503 70.8539H372.469V71.6775H375.503V70.8539Z" fill="#949699"/>
<path d="M380.02 70.8539H376.986V71.6775H380.02V70.8539Z" fill="#949699"/>
<path d="M370.986 74.423H367.952V75.2466H370.986V74.423Z" fill="#949699"/>
<path d="M375.503 74.423H372.469V75.2466H375.503V74.423Z" fill="#949699"/>
<path d="M380.02 74.423H376.986V75.2466H380.02V74.423Z" fill="#949699"/>
<path d="M370.986 77.992H367.952V78.8157H370.986V77.992Z" fill="#949699"/>
<path d="M375.503 77.992H372.469V78.8157H375.503V77.992Z" fill="#949699"/>
<path d="M380.02 77.992H376.986V78.8157H380.02V77.992Z" fill="#949699"/>
<path d="M370.986 81.5611H367.952V82.3847H370.986V81.5611Z" fill="#949699"/>
<path d="M375.503 81.5611H372.469V82.3847H375.503V81.5611Z" fill="#949699"/>
<path d="M380.02 81.5611H376.986V82.3847H380.02V81.5611Z" fill="#949699"/>
<path d="M370.986 85.1301H367.952V85.9538H370.986V85.1301Z" fill="#949699"/>
<path d="M375.503 85.1301H372.469V85.9538H375.503V85.1301Z" fill="#949699"/>
<path d="M380.02 85.1301H376.986V85.9538H380.02V85.1301Z" fill="#949699"/>
<path d="M370.986 88.6992H367.952V89.5228H370.986V88.6992Z" fill="#949699"/>
<path d="M375.503 88.6992H372.469V89.5228H375.503V88.6992Z" fill="#949699"/>
<path d="M380.02 88.6992H376.986V89.5228H380.02V88.6992Z" fill="#949699"/>
<path d="M370.986 92.2682H367.952V93.0919H370.986V92.2682Z" fill="#949699"/>
<path d="M375.503 92.2682H372.469V93.0919H375.503V92.2682Z" fill="#949699"/>
<path d="M380.02 92.2682H376.986V93.0919H380.02V92.2682Z" fill="#949699"/>
<path d="M1094.3 63.8874V60.2154H1085.54V63.8874H1077.64V97.9993H1094.34V63.8874H1094.3ZM1093.51 97.1757H1078.46V64.711H1086.36V61.039H1093.48V64.711H1093.51V97.1757Z" fill="#949699"/>
<path d="M1082.99 67.2849H1079.95V68.1085H1082.99V67.2849Z" fill="#949699"/>
<path d="M1087.5 67.2849H1084.47V68.1085H1087.5V67.2849Z" fill="#949699"/>
<path d="M1092.02 67.2849H1088.99V68.1085H1092.02V67.2849Z" fill="#949699"/>
<path d="M1082.99 70.8539H1079.95V71.6775H1082.99V70.8539Z" fill="#949699"/>
<path d="M1087.5 70.8539H1084.47V71.6775H1087.5V70.8539Z" fill="#949699"/>
<path d="M1092.02 70.8539H1088.99V71.6775H1092.02V70.8539Z" fill="#949699"/>
<path d="M1082.99 74.423H1079.95V75.2466H1082.99V74.423Z" fill="#949699"/>
<path d="M1087.5 74.423H1084.47V75.2466H1087.5V74.423Z" fill="#949699"/>
<path d="M1092.02 74.423H1088.99V75.2466H1092.02V74.423Z" fill="#949699"/>
<path d="M1082.99 77.992H1079.95V78.8157H1082.99V77.992Z" fill="#949699"/>
<path d="M1087.5 77.992H1084.47V78.8157H1087.5V77.992Z" fill="#949699"/>
<path d="M1092.02 77.992H1088.99V78.8157H1092.02V77.992Z" fill="#949699"/>
<path d="M1082.99 81.5611H1079.95V82.3847H1082.99V81.5611Z" fill="#949699"/>
<path d="M1087.5 81.5611H1084.47V82.3847H1087.5V81.5611Z" fill="#949699"/>
<path d="M1092.02 81.5611H1088.99V82.3847H1092.02V81.5611Z" fill="#949699"/>
<path d="M1082.99 85.1301H1079.95V85.9538H1082.99V85.1301Z" fill="#949699"/>
<path d="M1087.5 85.1301H1084.47V85.9538H1087.5V85.1301Z" fill="#949699"/>
<path d="M1092.02 85.1301H1088.99V85.9538H1092.02V85.1301Z" fill="#949699"/>
<path d="M1082.99 88.6992H1079.95V89.5228H1082.99V88.6992Z" fill="#949699"/>
<path d="M1087.5 88.6992H1084.47V89.5228H1087.5V88.6992Z" fill="#949699"/>
<path d="M1092.02 88.6992H1088.99V89.5228H1092.02V88.6992Z" fill="#949699"/>
<path d="M1082.99 92.2682H1079.95V93.0919H1082.99V92.2682Z" fill="#949699"/>
<path d="M1087.5 92.2682H1084.47V93.0919H1087.5V92.2682Z" fill="#949699"/>
<path d="M1092.02 92.2682H1088.99V93.0919H1092.02V92.2682Z" fill="#949699"/>
<path d="M39.0055 63.4069V71.8491H35.1047V80.2913H29.972V88.7334H25.1131V97.9993H52.282V63.4069H39.0055ZM51.4608 97.1756H25.9343V89.5571H30.7932V81.1149H35.9259V72.6727H39.8267V64.2305H51.4608V97.1756Z" fill="#949699"/>
<path d="M48.7883 91.6848H28.6717V92.5084H48.7883V91.6848Z" fill="#949699"/>
<path d="M48.7883 94.7734H28.6717V95.597H48.7883V94.7734Z" fill="#949699"/>
<path d="M48.7911 83.2426H33.3212V84.0662H48.7911V83.2426Z" fill="#949699"/>
<path d="M48.7911 86.3312H33.3212V87.1548H48.7911V86.3312Z" fill="#949699"/>
<path d="M49.9545 74.8004H37.3589V75.624H49.9545V74.8004Z" fill="#949699"/>
<path d="M49.9545 77.889H37.3589V78.7126H49.9545V77.889Z" fill="#949699"/>
<path d="M50.7757 66.8387H40.3701V67.6623H50.7757V66.8387Z" fill="#949699"/>
<path d="M50.7757 69.9273H40.3701V70.7509H50.7757V69.9273Z" fill="#949699"/>
<path d="M751.005 63.4069V71.8491H747.105V80.2913H741.972V88.7334H737.113V97.9993H764.282V63.4069H751.005ZM763.461 97.1756H737.934V89.5571H742.793V81.1149H747.926V72.6727H751.827V64.2305H763.461V97.1756Z" fill="#949699"/>
<path d="M760.788 91.6848H740.672V92.5084H760.788V91.6848Z" fill="#949699"/>
<path d="M760.788 94.7734H740.672V95.597H760.788V94.7734Z" fill="#949699"/>
<path d="M760.791 83.2426H745.321V84.0662H760.791V83.2426Z" fill="#949699"/>
<path d="M760.791 86.3312H745.321V87.1548H760.791V86.3312Z" fill="#949699"/>
<path d="M761.954 74.8004H749.359V75.624H761.954V74.8004Z" fill="#949699"/>
<path d="M761.954 77.889H749.359V78.7126H761.954V77.889Z" fill="#949699"/>
<path d="M762.776 66.8387H752.37V67.6623H762.776V66.8387Z" fill="#949699"/>
<path d="M762.776 69.9273H752.37V70.7509H762.776V69.9273Z" fill="#949699"/>
<path d="M395.393 63.4069V71.8491H391.492V80.2913H386.359V88.7334H381.5V97.9993H408.669V63.4069H395.393ZM407.848 97.1756H382.321V89.5571H387.18V81.1149H392.313V72.6727H396.214V64.2305H407.848V97.1756Z" fill="#949699"/>
<path d="M405.175 91.6848H385.059V92.5084H405.175V91.6848Z" fill="#949699"/>
<path d="M405.175 94.7734H385.059V95.597H405.175V94.7734Z" fill="#949699"/>
<path d="M405.178 83.2426H389.708V84.0662H405.178V83.2426Z" fill="#949699"/>
<path d="M405.178 86.3312H389.708V87.1548H405.178V86.3312Z" fill="#949699"/>
<path d="M406.342 74.8004H393.746V75.624H406.342V74.8004Z" fill="#949699"/>
<path d="M406.342 77.889H393.746V78.7126H406.342V77.889Z" fill="#949699"/>
<path d="M407.163 66.8387H396.757V67.6623H407.163V66.8387Z" fill="#949699"/>
<path d="M407.163 69.9273H396.757V70.7509H407.163V69.9273Z" fill="#949699"/>
<path d="M1107.39 63.4069V71.8491H1103.49V80.2913H1098.36V88.7334H1093.5V97.9993H1120.67V63.4069H1107.39ZM1119.85 97.1756H1094.32V89.5571H1099.18V81.1149H1104.31V72.6727H1108.21V64.2305H1119.85V97.1756Z" fill="#949699"/>
<path d="M1117.18 91.6848H1097.06V92.5084H1117.18V91.6848Z" fill="#949699"/>
<path d="M1117.18 94.7734H1097.06V95.597H1117.18V94.7734Z" fill="#949699"/>
<path d="M1117.18 83.2426H1101.71V84.0662H1117.18V83.2426Z" fill="#949699"/>
<path d="M1117.18 86.3312H1101.71V87.1548H1117.18V86.3312Z" fill="#949699"/>
<path d="M1118.34 74.8004H1105.75V75.624H1118.34V74.8004Z" fill="#949699"/>
<path d="M1118.34 77.889H1105.75V78.7126H1118.34V77.889Z" fill="#949699"/>
<path d="M1119.16 66.8387H1108.76V67.6623H1119.16V66.8387Z" fill="#949699"/>
<path d="M1119.16 69.9273H1108.76V70.7509H1119.16V69.9273Z" fill="#949699"/>
<path d="M61.7603 33.8675V24.6409H60.9391V33.8675L51.4607 43.957V97.9993H71.2386V43.957L61.7603 33.8675ZM70.4174 97.1757H52.282V44.2837L61.3497 34.6315L70.4174 44.2837V97.1757Z" fill="#949699"/>
<path d="M55.7722 45.6735V93.6759H66.9272V45.6735L61.3497 39.7366L55.7722 45.6735ZM66.1059 92.8516H56.5934V45.9996L61.3497 40.9363L66.1059 45.9996V92.8516Z" fill="#949699"/>
<path d="M773.76 33.8675V24.6409H772.939V33.8675L763.461 43.957V97.9993H783.239V43.957L773.76 33.8675ZM782.417 97.1757H764.282V44.2837L773.35 34.6315L782.417 44.2837V97.1757Z" fill="#949699"/>
<path d="M767.772 45.6735V93.6759H778.927V45.6735L773.35 39.7366L767.772 45.6735ZM778.106 92.8516H768.593V45.9996L773.35 40.9363L778.106 45.9996V92.8516Z" fill="#949699"/>
<path d="M418.147 33.8675V24.6409H417.326V33.8675L407.848 43.957V97.9993H427.626V43.957L418.147 33.8675ZM426.804 97.1757H408.669V44.2837L417.737 34.6315L426.804 44.2837V97.1757Z" fill="#949699"/>
<path d="M412.159 45.6735V93.6759H423.314V45.6735L417.737 39.7366L412.159 45.6735ZM422.493 92.8516H412.98V45.9996L417.737 40.9363L422.493 45.9996V92.8516Z" fill="#949699"/>
<path d="M1130.15 33.8675V24.6409H1129.33V33.8675L1119.85 43.957V97.9993H1139.63V43.957L1130.15 33.8675ZM1138.8 97.1757H1120.67V44.2837L1129.74 34.6315L1138.8 44.2837V97.1757Z" fill="#949699"/>
<path d="M1124.16 45.6735V93.6759H1135.31V45.6735L1129.74 39.7366L1124.16 45.6735ZM1134.49 92.8516H1124.98V45.9996L1129.74 40.9363L1134.49 45.9996V92.8516Z" fill="#949699"/>
<path d="M89.6478 97.1756H74.4551V97.9992H89.6478V97.1756Z" fill="#949699"/>
<path d="M801.648 97.1756H786.455V97.9992H801.648V97.1756Z" fill="#949699"/>
<path d="M446.035 97.1756H430.842V97.9992H446.035V97.1756Z" fill="#949699"/>
<path d="M1158.03 97.1756H1142.84V97.9992H1158.03V97.1756Z" fill="#949699"/>
<path d="M73.6339 71.8491H72.8126V94.5675H73.6339V71.8491Z" fill="#949699"/>
<path d="M76.0975 71.8491H75.2763V94.5675H76.0975V71.8491Z" fill="#949699"/>
<path d="M90.0584 68.8291V45.3558H74.0445V68.8291H70.4174V97.9993H78.4244V94.9793H85.6785V97.9993H93.6855V68.8291H90.0584ZM74.8657 46.1794H89.2372V68.8291H87.1841V48.2385H76.8503V68.8291H74.8657V46.1794ZM83.2833 49.0621V94.1557H80.7984V49.0621H83.2833ZM77.6031 97.1757H71.2386V69.6528H77.6031V97.1757ZM77.6716 68.8291V49.0621H79.9772V94.1557H78.4244V68.8291H77.6716ZM84.1045 94.1557V49.0621H86.3629V68.8291H85.6785V94.1557H84.1045ZM92.8642 97.1757H86.4997V69.6528H92.8642V97.1757Z" fill="#949699"/>
<path d="M88.895 71.8491H88.0738V94.5675H88.895V71.8491Z" fill="#949699"/>
<path d="M91.3587 71.8491H90.5374V94.5675H91.3587V71.8491Z" fill="#949699"/>
<path d="M785.634 71.8491H784.813V94.5675H785.634V71.8491Z" fill="#949699"/>
<path d="M788.098 71.8491H787.276V94.5675H788.098V71.8491Z" fill="#949699"/>
<path d="M802.058 68.8291V45.3558H786.044V68.8291H782.417V97.9993H790.424V94.9793H797.678V97.9993H805.685V68.8291H802.058ZM786.866 46.1794H801.237V68.8291H799.184V48.2385H788.85V68.8291H786.866V46.1794ZM795.283 49.0621V94.1557H792.798V49.0621H795.283ZM789.603 97.1757H783.239V69.6528H789.603V97.1757ZM789.672 68.8291V49.0621H791.977V94.1557H790.424V68.8291H789.672ZM796.104 94.1557V49.0621H798.363V68.8291H797.678V94.1557H796.104ZM804.864 97.1757H798.5V69.6528H804.864V97.1757Z" fill="#949699"/>
<path d="M800.895 71.8491H800.074V94.5675H800.895V71.8491Z" fill="#949699"/>
<path d="M803.359 71.8491H802.537V94.5675H803.359V71.8491Z" fill="#949699"/>
<path d="M430.021 71.8491H429.2V94.5675H430.021V71.8491Z" fill="#949699"/>
<path d="M432.485 71.8491H431.663V94.5675H432.485V71.8491Z" fill="#949699"/>
<path d="M446.445 68.8291V45.3558H430.432V68.8291H426.804V97.9993H434.811V94.9793H442.066V97.9993H450.073V68.8291H446.445ZM431.253 46.1794H445.624V68.8291H443.571V48.2385H433.237V68.8291H431.253V46.1794ZM439.67 49.0621V94.1557H437.185V49.0621H439.67ZM433.99 97.1757H427.626V69.6528H433.99V97.1757ZM434.059 68.8291V49.0621H436.364V94.1557H434.811V68.8291H434.059ZM440.492 94.1557V49.0621H442.75V68.8291H442.066V94.1557H440.492ZM449.251 97.1757H442.887V69.6528H449.251V97.1757Z" fill="#949699"/>
<path d="M445.282 71.8491H444.461V94.5675H445.282V71.8491Z" fill="#949699"/>
<path d="M447.746 71.8491H446.924V94.5675H447.746V71.8491Z" fill="#949699"/>
<path d="M1142.02 71.8491H1141.2V94.5675H1142.02V71.8491Z" fill="#949699"/>
<path d="M1144.48 71.8491H1143.66V94.5675H1144.48V71.8491Z" fill="#949699"/>
<path d="M1158.45 68.8291V45.3558H1142.43V68.8291H1138.8V97.9993H1146.81V94.9793H1154.07V97.9993H1162.07V68.8291H1158.45ZM1143.25 46.1794H1157.62V68.8291H1155.57V48.2385H1145.24V68.8291H1143.25V46.1794ZM1151.67 49.0621V94.1557H1149.19V49.0621H1151.67ZM1145.99 97.1757H1139.63V69.6528H1145.99V97.1757ZM1146.06 68.8291V49.0621H1148.36V94.1557H1146.81V68.8291H1146.06ZM1152.49 94.1557V49.0621H1154.75V68.8291H1154.07V94.1557H1152.49ZM1161.25 97.1757H1154.89V69.6528H1161.25V97.1757Z" fill="#949699"/>
<path d="M1157.28 71.8491H1156.46V94.5675H1157.28V71.8491Z" fill="#949699"/>
<path d="M1159.75 71.8491H1158.92V94.5675H1159.75V71.8491Z" fill="#949699"/>
<path d="M100.229 76.7909H95.1226V77.6145H100.229V76.7909Z" fill="#949699"/>
<path d="M97.6547 79.3894H95.1226V80.213H97.6547V79.3894Z" fill="#949699"/>
<path d="M100.229 81.988H95.1226V82.8116H100.229V81.988Z" fill="#949699"/>
<path d="M97.6547 84.5858H95.1226V85.4094H97.6547V84.5858Z" fill="#949699"/>
<path d="M100.229 87.1844H95.1226V88.008H100.229V87.1844Z" fill="#949699"/>
<path d="M97.6547 89.7678H95.1226V90.5914H97.6547V89.7678Z" fill="#949699"/>
<path d="M103.609 92.3814H95.1226V93.2051H103.609V92.3814Z" fill="#949699"/>
<path d="M97.6547 94.9745H95.1226V95.7981H97.6547V94.9745Z" fill="#949699"/>
<path d="M100.229 79.3894H98.5574V80.213H100.229V79.3894Z" fill="#949699"/>
<path d="M100.229 84.6057H98.5574V85.4294H100.229V84.6057Z" fill="#949699"/>
<path d="M100.229 89.7678H98.5574V90.5914H100.229V89.7678Z" fill="#949699"/>
<path d="M103.609 94.9745H98.5574V95.7981H103.609V94.9745Z" fill="#949699"/>
<path d="M102.445 89.763V74.4573H92.8642V97.9993H106.825V89.763H102.445ZM106.004 97.1756H93.6854V75.2809H101.624V90.5866H106.004V97.1756Z" fill="#949699"/>
<path d="M812.229 76.7909H807.123V77.6145H812.229V76.7909Z" fill="#949699"/>
<path d="M809.655 79.3894H807.123V80.213H809.655V79.3894Z" fill="#949699"/>
<path d="M812.229 81.988H807.123V82.8116H812.229V81.988Z" fill="#949699"/>
<path d="M809.655 84.5858H807.123V85.4094H809.655V84.5858Z" fill="#949699"/>
<path d="M812.229 87.1844H807.123V88.008H812.229V87.1844Z" fill="#949699"/>
<path d="M809.655 89.7678H807.123V90.5914H809.655V89.7678Z" fill="#949699"/>
<path d="M815.609 92.3814H807.123V93.2051H815.609V92.3814Z" fill="#949699"/>
<path d="M809.655 94.9745H807.123V95.7981H809.655V94.9745Z" fill="#949699"/>
<path d="M812.229 79.3894H810.557V80.213H812.229V79.3894Z" fill="#949699"/>
<path d="M812.229 84.6057H810.557V85.4294H812.229V84.6057Z" fill="#949699"/>
<path d="M812.229 89.7678H810.557V90.5914H812.229V89.7678Z" fill="#949699"/>
<path d="M815.609 94.9745H810.557V95.7981H815.609V94.9745Z" fill="#949699"/>
<path d="M814.445 89.763V74.4573H804.864V97.9993H818.825V89.763H814.445ZM818.004 97.1756H805.685V75.2809H813.624V90.5866H818.004V97.1756Z" fill="#949699"/>
<path d="M456.616 76.7909H451.51V77.6145H456.616V76.7909Z" fill="#949699"/>
<path d="M454.042 79.3894H451.51V80.213H454.042V79.3894Z" fill="#949699"/>
<path d="M456.616 81.988H451.51V82.8116H456.616V81.988Z" fill="#949699"/>
<path d="M454.042 84.5858H451.51V85.4094H454.042V84.5858Z" fill="#949699"/>
<path d="M456.616 87.1844H451.51V88.008H456.616V87.1844Z" fill="#949699"/>
<path d="M454.042 89.7678H451.51V90.5914H454.042V89.7678Z" fill="#949699"/>
<path d="M459.996 92.3814H451.51V93.2051H459.996V92.3814Z" fill="#949699"/>
<path d="M454.042 94.9745H451.51V95.7981H454.042V94.9745Z" fill="#949699"/>
<path d="M456.616 79.3894H454.944V80.213H456.616V79.3894Z" fill="#949699"/>
<path d="M456.616 84.6057H454.944V85.4294H456.616V84.6057Z" fill="#949699"/>
<path d="M456.616 89.7678H454.944V90.5914H456.616V89.7678Z" fill="#949699"/>
<path d="M459.996 94.9745H454.944V95.7981H459.996V94.9745Z" fill="#949699"/>
<path d="M458.832 89.763V74.4573H449.251V97.9993H463.212V89.763H458.832ZM462.391 97.1756H450.073V75.2809H458.011V90.5866H462.391V97.1756Z" fill="#949699"/>
<path d="M1168.62 76.7909H1163.51V77.6145H1168.62V76.7909Z" fill="#949699"/>
<path d="M1166.04 79.3894H1163.51V80.213H1166.04V79.3894Z" fill="#949699"/>
<path d="M1168.62 81.988H1163.51V82.8116H1168.62V81.988Z" fill="#949699"/>
<path d="M1166.04 84.5858H1163.51V85.4094H1166.04V84.5858Z" fill="#949699"/>
<path d="M1168.62 87.1844H1163.51V88.008H1168.62V87.1844Z" fill="#949699"/>
<path d="M1166.04 89.7678H1163.51V90.5914H1166.04V89.7678Z" fill="#949699"/>
<path d="M1172 92.3814H1163.51V93.2051H1172V92.3814Z" fill="#949699"/>
<path d="M1166.04 94.9745H1163.51V95.7981H1166.04V94.9745Z" fill="#949699"/>
<path d="M1168.62 79.3894H1166.94V80.213H1168.62V79.3894Z" fill="#949699"/>
<path d="M1168.62 84.6057H1166.94V85.4294H1168.62V84.6057Z" fill="#949699"/>
<path d="M1168.62 89.7678H1166.94V90.5914H1168.62V89.7678Z" fill="#949699"/>
<path d="M1172 94.9745H1166.94V95.7981H1172V94.9745Z" fill="#949699"/>
<path d="M1170.83 89.763V74.4573H1161.25V97.9993H1175.21V89.763H1170.83ZM1174.39 97.1756H1162.07V75.2809H1170.01V90.5866H1174.39V97.1756Z" fill="#949699"/>
<path d="M110.452 61.0733H107.852V96.2148H110.452V61.0733ZM109.631 95.3912H108.673V61.897H109.631V95.3912Z" fill="#949699"/>
<path d="M113.942 51.4479V57.0932H108.741V59.2895H106.004V98H120.375V55.0677L113.942 51.4486V51.4479ZM111.479 97.1757H106.825V60.1124H111.479V97.1757ZM112.3 97.1757V59.2888H109.562V57.9161H113.942V97.1757H112.3ZM119.554 97.1757H114.77V57.0925H114.764V52.8542L119.554 55.5496V97.1764V97.1757Z" fill="#949699"/>
<path d="M118.391 56.2325L115.927 54.846V96.0089H118.391V56.2325ZM117.569 95.1852H116.748V56.2524L117.569 56.7143V95.1852Z" fill="#949699"/>
<path d="M822.452 61.0733H819.852V96.2148H822.452V61.0733ZM821.631 95.3912H820.673V61.897H821.631V95.3912Z" fill="#949699"/>
<path d="M825.942 51.4479V57.0932H820.741V59.2895H818.004V98H832.375V55.0677L825.942 51.4486V51.4479ZM823.479 97.1757H818.825V60.1124H823.479V97.1757ZM824.3 97.1757V59.2888H821.562V57.9161H825.942V97.1757H824.3ZM831.554 97.1757H826.77V57.0925H826.764V52.8542L831.554 55.5496V97.1764V97.1757Z" fill="#949699"/>
<path d="M830.391 56.2325L827.927 54.846V96.0089H830.391V56.2325ZM829.569 95.1852H828.748V56.2524L829.569 56.7143V95.1852Z" fill="#949699"/>
<path d="M466.839 61.0733H464.239V96.2148H466.839V61.0733ZM466.018 95.3912H465.06V61.897H466.018V95.3912Z" fill="#949699"/>
<path d="M470.329 51.4479V57.0932H465.128V59.2895H462.391V98H476.762V55.0677L470.329 51.4486V51.4479ZM467.866 97.1757H463.212V60.1124H467.866V97.1757ZM468.687 97.1757V59.2888H465.95V57.9161H470.329V97.1757H468.687ZM475.941 97.1757H471.158V57.0925H471.151V52.8542L475.941 55.5496V97.1764V97.1757Z" fill="#949699"/>
<path d="M474.778 56.2325L472.314 54.846V96.0089H474.778V56.2325ZM473.957 95.1852H473.135V56.2524L473.957 56.7143V95.1852Z" fill="#949699"/>
<path d="M1178.84 61.0733H1176.24V96.2148H1178.84V61.0733ZM1178.02 95.3912H1177.06V61.897H1178.02V95.3912Z" fill="#949699"/>
<path d="M1182.33 51.4479V57.0932H1177.13V59.2895H1174.39V98H1188.76V55.0677L1182.33 51.4486V51.4479ZM1179.87 97.1757H1175.21V60.1124H1179.87V97.1757ZM1180.69 97.1757V59.2888H1177.95V57.9161H1182.33V97.1757H1180.69ZM1187.94 97.1757H1183.16V57.0925H1183.15V52.8542L1187.94 55.5496V97.1764V97.1757Z" fill="#949699"/>
<path d="M1186.78 56.2325L1184.31 54.846V96.0089H1186.78V56.2325ZM1185.96 95.1852H1185.14V56.2524L1185.96 56.7143V95.1852Z" fill="#949699"/>
<path d="M129.819 57.7788V82.0071H127.014V79.9481H119.554V97.9992H142.001V57.7788H129.819ZM124.139 80.7717V97.1756H122.43V80.7717H124.139ZM120.375 80.7717H121.608V97.1756H120.375V80.7717ZM126.192 97.1756H124.96V80.7717H126.192V97.1756ZM141.18 97.1756H127.014V82.8308H130.641V58.6024H141.18V97.1756Z" fill="#949699"/>
<path d="M139.537 60.181H132.283V61.0047H139.537V60.181Z" fill="#949699"/>
<path d="M139.537 63.2696H132.283V64.0933H139.537V63.2696Z" fill="#949699"/>
<path d="M139.537 66.3582H132.283V67.1819H139.537V66.3582Z" fill="#949699"/>
<path d="M139.537 69.4468H132.283V70.2705H139.537V69.4468Z" fill="#949699"/>
<path d="M139.537 72.5354H132.283V73.3591H139.537V72.5354Z" fill="#949699"/>
<path d="M139.537 75.624H132.283V76.4477H139.537V75.624Z" fill="#949699"/>
<path d="M139.537 78.7126H132.283V79.5363H139.537V78.7126Z" fill="#949699"/>
<path d="M139.537 81.8012H132.283V82.6249H139.537V81.8012Z" fill="#949699"/>
<path d="M139.537 84.8898H132.283V85.7135H139.537V84.8898Z" fill="#949699"/>
<path d="M139.537 87.9784H132.283V88.8021H139.537V87.9784Z" fill="#949699"/>
<path d="M139.537 91.067H132.283V91.8907H139.537V91.067Z" fill="#949699"/>
<path d="M139.537 94.1556H132.283V94.9793H139.537V94.1556Z" fill="#949699"/>
<path d="M130.596 84.8898H128.425V85.7135H130.596V84.8898Z" fill="#949699"/>
<path d="M130.596 87.9784H128.425V88.8021H130.596V87.9784Z" fill="#949699"/>
<path d="M130.596 91.067H128.425V91.8907H130.596V91.067Z" fill="#949699"/>
<path d="M130.596 94.1556H128.425V94.9793H130.596V94.1556Z" fill="#949699"/>
<path d="M841.819 57.7788V82.0071H839.014V79.9481H831.554V97.9992H854.001V57.7788H841.819ZM836.139 80.7717V97.1756H834.43V80.7717H836.139ZM832.375 80.7717H833.608V97.1756H832.375V80.7717ZM838.192 97.1756H836.96V80.7717H838.192V97.1756ZM853.18 97.1756H839.014V82.8308H842.641V58.6024H853.18V97.1756Z" fill="#949699"/>
<path d="M851.537 60.181H844.283V61.0047H851.537V60.181Z" fill="#949699"/>
<path d="M851.537 63.2696H844.283V64.0933H851.537V63.2696Z" fill="#949699"/>
<path d="M851.537 66.3582H844.283V67.1819H851.537V66.3582Z" fill="#949699"/>
<path d="M851.537 69.4468H844.283V70.2705H851.537V69.4468Z" fill="#949699"/>
<path d="M851.537 72.5354H844.283V73.3591H851.537V72.5354Z" fill="#949699"/>
<path d="M851.537 75.624H844.283V76.4477H851.537V75.624Z" fill="#949699"/>
<path d="M851.537 78.7126H844.283V79.5363H851.537V78.7126Z" fill="#949699"/>
<path d="M851.537 81.8012H844.283V82.6249H851.537V81.8012Z" fill="#949699"/>
<path d="M851.537 84.8898H844.283V85.7135H851.537V84.8898Z" fill="#949699"/>
<path d="M851.537 87.9784H844.283V88.8021H851.537V87.9784Z" fill="#949699"/>
<path d="M851.537 91.067H844.283V91.8907H851.537V91.067Z" fill="#949699"/>
<path d="M851.537 94.1556H844.283V94.9793H851.537V94.1556Z" fill="#949699"/>
<path d="M842.596 84.8898H840.425V85.7135H842.596V84.8898Z" fill="#949699"/>
<path d="M842.596 87.9784H840.425V88.8021H842.596V87.9784Z" fill="#949699"/>
<path d="M842.596 91.067H840.425V91.8907H842.596V91.067Z" fill="#949699"/>
<path d="M842.596 94.1556H840.425V94.9793H842.596V94.1556Z" fill="#949699"/>
<path d="M486.206 57.7788V82.0071H483.401V79.9481H475.941V97.9992H498.388V57.7788H486.206ZM480.526 80.7717V97.1756H478.817V80.7717H480.526ZM476.762 80.7717H477.996V97.1756H476.762V80.7717ZM482.579 97.1756H481.348V80.7717H482.579V97.1756ZM497.567 97.1756H483.401V82.8308H487.028V58.6024H497.567V97.1756Z" fill="#949699"/>
<path d="M495.924 60.181H488.67V61.0047H495.924V60.181Z" fill="#949699"/>
<path d="M495.924 63.2696H488.67V64.0933H495.924V63.2696Z" fill="#949699"/>
<path d="M495.924 66.3582H488.67V67.1819H495.924V66.3582Z" fill="#949699"/>
<path d="M495.924 69.4468H488.67V70.2705H495.924V69.4468Z" fill="#949699"/>
<path d="M495.924 72.5354H488.67V73.3591H495.924V72.5354Z" fill="#949699"/>
<path d="M495.924 75.624H488.67V76.4477H495.924V75.624Z" fill="#949699"/>
<path d="M495.924 78.7126H488.67V79.5363H495.924V78.7126Z" fill="#949699"/>
<path d="M495.924 81.8012H488.67V82.6249H495.924V81.8012Z" fill="#949699"/>
<path d="M495.924 84.8898H488.67V85.7135H495.924V84.8898Z" fill="#949699"/>
<path d="M495.924 87.9784H488.67V88.8021H495.924V87.9784Z" fill="#949699"/>
<path d="M495.924 91.067H488.67V91.8907H495.924V91.067Z" fill="#949699"/>
<path d="M495.924 94.1556H488.67V94.9793H495.924V94.1556Z" fill="#949699"/>
<path d="M486.983 84.8898H484.812V85.7135H486.983V84.8898Z" fill="#949699"/>
<path d="M486.983 87.9784H484.812V88.8021H486.983V87.9784Z" fill="#949699"/>
<path d="M486.983 91.067H484.812V91.8907H486.983V91.067Z" fill="#949699"/>
<path d="M486.983 94.1556H484.812V94.9793H486.983V94.1556Z" fill="#949699"/>
<path d="M1198.21 57.7788V82.0071H1195.4V79.9481H1187.94V97.9992H1210.39V57.7788H1198.21ZM1192.53 80.7717V97.1756H1190.82V80.7717H1192.53ZM1188.76 80.7717H1190V97.1756H1188.76V80.7717ZM1194.58 97.1756H1193.35V80.7717H1194.58V97.1756ZM1209.57 97.1756H1195.4V82.8308H1199.03V58.6024H1209.57V97.1756Z" fill="#949699"/>
<path d="M1207.92 60.181H1200.67V61.0047H1207.92V60.181Z" fill="#949699"/>
<path d="M1207.92 63.2696H1200.67V64.0933H1207.92V63.2696Z" fill="#949699"/>
<path d="M1207.92 66.3582H1200.67V67.1819H1207.92V66.3582Z" fill="#949699"/>
<path d="M1207.92 69.4468H1200.67V70.2705H1207.92V69.4468Z" fill="#949699"/>
<path d="M1207.92 72.5354H1200.67V73.3591H1207.92V72.5354Z" fill="#949699"/>
<path d="M1207.92 75.624H1200.67V76.4477H1207.92V75.624Z" fill="#949699"/>
<path d="M1207.92 78.7126H1200.67V79.5363H1207.92V78.7126Z" fill="#949699"/>
<path d="M1207.92 81.8012H1200.67V82.6249H1207.92V81.8012Z" fill="#949699"/>
<path d="M1207.92 84.8898H1200.67V85.7135H1207.92V84.8898Z" fill="#949699"/>
<path d="M1207.92 87.9784H1200.67V88.8021H1207.92V87.9784Z" fill="#949699"/>
<path d="M1207.92 91.067H1200.67V91.8907H1207.92V91.067Z" fill="#949699"/>
<path d="M1207.92 94.1556H1200.67V94.9793H1207.92V94.1556Z" fill="#949699"/>
<path d="M1198.98 84.8898H1196.81V85.7135H1198.98V84.8898Z" fill="#949699"/>
<path d="M1198.98 87.9784H1196.81V88.8021H1198.98V87.9784Z" fill="#949699"/>
<path d="M1198.98 91.067H1196.81V91.8907H1198.98V91.067Z" fill="#949699"/>
<path d="M1198.98 94.1556H1196.81V94.9793H1198.98V94.1556Z" fill="#949699"/>
<path d="M145.696 60.1811H142.663V61.0047H145.696V60.1811Z" fill="#949699"/>
<path d="M145.696 63.2697H142.663V64.0933H145.696V63.2697Z" fill="#949699"/>
<path d="M145.696 66.3583H142.663V67.1819H145.696V66.3583Z" fill="#949699"/>
<path d="M145.696 69.4469H142.663V70.2705H145.696V69.4469Z" fill="#949699"/>
<path d="M145.696 72.5355H142.663V73.3591H145.696V72.5355Z" fill="#949699"/>
<path d="M145.696 75.6241H142.663V76.4477H145.696V75.6241Z" fill="#949699"/>
<path d="M145.696 78.7127H142.663V79.5363H145.696V78.7127Z" fill="#949699"/>
<path d="M145.696 81.8013H142.663V82.6249H145.696V81.8013Z" fill="#949699"/>
<path d="M145.696 84.8899H142.663V85.7136H145.696V84.8899Z" fill="#949699"/>
<path d="M145.696 87.9785H142.663V88.8022H145.696V87.9785Z" fill="#949699"/>
<path d="M145.696 91.0671H142.663V91.8908H145.696V91.0671Z" fill="#949699"/>
<path d="M145.696 94.1557H142.663V94.9794H145.696V94.1557Z" fill="#949699"/>
<path d="M146.312 45.9735V57.7789H141.18V97.9993H159.863V45.9735H146.312ZM146.312 97.1757H142.001V58.6025H146.312V97.1757ZM153.772 97.1757H147.134V46.7972H153.772V97.1757ZM159.041 97.1757H154.593V46.7972H159.041V97.1757Z" fill="#949699"/>
<path d="M149.785 94.1557H148.297V94.9794H149.785V94.1557Z" fill="#949699"/>
<path d="M152.591 94.1557H151.103V94.9794H152.591V94.1557Z" fill="#949699"/>
<path d="M149.785 91.0671H148.297V91.8908H149.785V91.0671Z" fill="#949699"/>
<path d="M152.591 91.0671H151.103V91.8908H152.591V91.0671Z" fill="#949699"/>
<path d="M149.785 87.9785H148.297V88.8022H149.785V87.9785Z" fill="#949699"/>
<path d="M152.591 87.9785H151.103V88.8022H152.591V87.9785Z" fill="#949699"/>
<path d="M149.785 84.8899H148.297V85.7136H149.785V84.8899Z" fill="#949699"/>
<path d="M152.591 84.8899H151.103V85.7136H152.591V84.8899Z" fill="#949699"/>
<path d="M149.785 81.8013H148.297V82.6249H149.785V81.8013Z" fill="#949699"/>
<path d="M152.591 81.8013H151.103V82.6249H152.591V81.8013Z" fill="#949699"/>
<path d="M149.785 78.7127H148.297V79.5363H149.785V78.7127Z" fill="#949699"/>
<path d="M152.591 78.7127H151.103V79.5363H152.591V78.7127Z" fill="#949699"/>
<path d="M149.785 75.6241H148.297V76.4477H149.785V75.6241Z" fill="#949699"/>
<path d="M152.591 75.6241H151.103V76.4477H152.591V75.6241Z" fill="#949699"/>
<path d="M149.785 72.5355H148.297V73.3591H149.785V72.5355Z" fill="#949699"/>
<path d="M152.591 72.5355H151.103V73.3591H152.591V72.5355Z" fill="#949699"/>
<path d="M149.785 69.4469H148.297V70.2705H149.785V69.4469Z" fill="#949699"/>
<path d="M152.591 69.4469H151.103V70.2705H152.591V69.4469Z" fill="#949699"/>
<path d="M149.785 66.3583H148.297V67.1819H149.785V66.3583Z" fill="#949699"/>
<path d="M152.591 66.3583H151.103V67.1819H152.591V66.3583Z" fill="#949699"/>
<path d="M149.785 63.2697H148.297V64.0933H149.785V63.2697Z" fill="#949699"/>
<path d="M152.591 63.2697H151.103V64.0933H152.591V63.2697Z" fill="#949699"/>
<path d="M149.785 60.1811H148.297V61.0047H149.785V60.1811Z" fill="#949699"/>
<path d="M152.591 60.1811H151.103V61.0047H152.591V60.1811Z" fill="#949699"/>
<path d="M149.785 57.0925H148.297V57.9161H149.785V57.0925Z" fill="#949699"/>
<path d="M152.591 57.0925H151.103V57.9161H152.591V57.0925Z" fill="#949699"/>
<path d="M149.785 54.0039H148.297V54.8275H149.785V54.0039Z" fill="#949699"/>
<path d="M152.591 54.0039H151.103V54.8275H152.591V54.0039Z" fill="#949699"/>
<path d="M149.785 50.9153H148.297V51.7389H149.785V50.9153Z" fill="#949699"/>
<path d="M152.591 50.9153H151.103V51.7389H152.591V50.9153Z" fill="#949699"/>
<path d="M149.785 47.8267H148.297V48.6503H149.785V47.8267Z" fill="#949699"/>
<path d="M152.591 47.8267H151.103V48.6503H152.591V47.8267Z" fill="#949699"/>
<path d="M857.696 60.1811H854.663V61.0047H857.696V60.1811Z" fill="#949699"/>
<path d="M857.696 63.2697H854.663V64.0933H857.696V63.2697Z" fill="#949699"/>
<path d="M857.696 66.3583H854.663V67.1819H857.696V66.3583Z" fill="#949699"/>
<path d="M857.696 69.4469H854.663V70.2705H857.696V69.4469Z" fill="#949699"/>
<path d="M857.696 72.5355H854.663V73.3591H857.696V72.5355Z" fill="#949699"/>
<path d="M857.696 75.6241H854.663V76.4477H857.696V75.6241Z" fill="#949699"/>
<path d="M857.696 78.7127H854.663V79.5363H857.696V78.7127Z" fill="#949699"/>
<path d="M857.696 81.8013H854.663V82.6249H857.696V81.8013Z" fill="#949699"/>
<path d="M857.696 84.8899H854.663V85.7136H857.696V84.8899Z" fill="#949699"/>
<path d="M857.696 87.9785H854.663V88.8022H857.696V87.9785Z" fill="#949699"/>
<path d="M857.696 91.0671H854.663V91.8908H857.696V91.0671Z" fill="#949699"/>
<path d="M857.696 94.1557H854.663V94.9794H857.696V94.1557Z" fill="#949699"/>
<path d="M858.312 45.9735V57.7789H853.18V97.9993H871.863V45.9735H858.312ZM858.312 97.1757H854.001V58.6025H858.312V97.1757ZM865.772 97.1757H859.134V46.7972H865.772V97.1757ZM871.041 97.1757H866.593V46.7972H871.041V97.1757Z" fill="#949699"/>
<path d="M861.785 94.1557H860.297V94.9794H861.785V94.1557Z" fill="#949699"/>
<path d="M864.591 94.1557H863.103V94.9794H864.591V94.1557Z" fill="#949699"/>
<path d="M861.785 91.0671H860.297V91.8908H861.785V91.0671Z" fill="#949699"/>
<path d="M864.591 91.0671H863.103V91.8908H864.591V91.0671Z" fill="#949699"/>
<path d="M861.785 87.9785H860.297V88.8022H861.785V87.9785Z" fill="#949699"/>
<path d="M864.591 87.9785H863.103V88.8022H864.591V87.9785Z" fill="#949699"/>
<path d="M861.785 84.8899H860.297V85.7136H861.785V84.8899Z" fill="#949699"/>
<path d="M864.591 84.8899H863.103V85.7136H864.591V84.8899Z" fill="#949699"/>
<path d="M861.785 81.8013H860.297V82.6249H861.785V81.8013Z" fill="#949699"/>
<path d="M864.591 81.8013H863.103V82.6249H864.591V81.8013Z" fill="#949699"/>
<path d="M861.785 78.7127H860.297V79.5363H861.785V78.7127Z" fill="#949699"/>
<path d="M864.591 78.7127H863.103V79.5363H864.591V78.7127Z" fill="#949699"/>
<path d="M861.785 75.6241H860.297V76.4477H861.785V75.6241Z" fill="#949699"/>
<path d="M864.591 75.6241H863.103V76.4477H864.591V75.6241Z" fill="#949699"/>
<path d="M861.785 72.5355H860.297V73.3591H861.785V72.5355Z" fill="#949699"/>
<path d="M864.591 72.5355H863.103V73.3591H864.591V72.5355Z" fill="#949699"/>
<path d="M861.785 69.4469H860.297V70.2705H861.785V69.4469Z" fill="#949699"/>
<path d="M864.591 69.4469H863.103V70.2705H864.591V69.4469Z" fill="#949699"/>
<path d="M861.785 66.3583H860.297V67.1819H861.785V66.3583Z" fill="#949699"/>
<path d="M864.591 66.3583H863.103V67.1819H864.591V66.3583Z" fill="#949699"/>
<path d="M861.785 63.2697H860.297V64.0933H861.785V63.2697Z" fill="#949699"/>
<path d="M864.591 63.2697H863.103V64.0933H864.591V63.2697Z" fill="#949699"/>
<path d="M861.785 60.1811H860.297V61.0047H861.785V60.1811Z" fill="#949699"/>
<path d="M864.591 60.1811H863.103V61.0047H864.591V60.1811Z" fill="#949699"/>
<path d="M861.785 57.0925H860.297V57.9161H861.785V57.0925Z" fill="#949699"/>
<path d="M864.591 57.0925H863.103V57.9161H864.591V57.0925Z" fill="#949699"/>
<path d="M861.785 54.0039H860.297V54.8275H861.785V54.0039Z" fill="#949699"/>
<path d="M864.591 54.0039H863.103V54.8275H864.591V54.0039Z" fill="#949699"/>
<path d="M861.785 50.9153H860.297V51.7389H861.785V50.9153Z" fill="#949699"/>
<path d="M864.591 50.9153H863.103V51.7389H864.591V50.9153Z" fill="#949699"/>
<path d="M861.785 47.8267H860.297V48.6503H861.785V47.8267Z" fill="#949699"/>
<path d="M864.591 47.8267H863.103V48.6503H864.591V47.8267Z" fill="#949699"/>
<path d="M502.084 60.1811H499.05V61.0047H502.084V60.1811Z" fill="#949699"/>
<path d="M502.084 63.2697H499.05V64.0933H502.084V63.2697Z" fill="#949699"/>
<path d="M502.084 66.3583H499.05V67.1819H502.084V66.3583Z" fill="#949699"/>
<path d="M502.084 69.4469H499.05V70.2705H502.084V69.4469Z" fill="#949699"/>
<path d="M502.084 72.5355H499.05V73.3591H502.084V72.5355Z" fill="#949699"/>
<path d="M502.084 75.6241H499.05V76.4477H502.084V75.6241Z" fill="#949699"/>
<path d="M502.084 78.7127H499.05V79.5363H502.084V78.7127Z" fill="#949699"/>
<path d="M502.084 81.8013H499.05V82.6249H502.084V81.8013Z" fill="#949699"/>
<path d="M502.084 84.8899H499.05V85.7136H502.084V84.8899Z" fill="#949699"/>
<path d="M502.084 87.9785H499.05V88.8022H502.084V87.9785Z" fill="#949699"/>
<path d="M502.084 91.0671H499.05V91.8908H502.084V91.0671Z" fill="#949699"/>
<path d="M502.084 94.1557H499.05V94.9794H502.084V94.1557Z" fill="#949699"/>
<path d="M502.699 45.9735V57.7789H497.567V97.9993H516.25V45.9735H502.699ZM502.699 97.1757H498.388V58.6025H502.699V97.1757ZM510.159 97.1757H503.521V46.7972H510.159V97.1757ZM515.428 97.1757H510.98V46.7972H515.428V97.1757Z" fill="#949699"/>
<path d="M506.172 94.1557H504.684V94.9794H506.172V94.1557Z" fill="#949699"/>
<path d="M508.978 94.1557H507.49V94.9794H508.978V94.1557Z" fill="#949699"/>
<path d="M506.172 91.0671H504.684V91.8908H506.172V91.0671Z" fill="#949699"/>
<path d="M508.978 91.0671H507.49V91.8908H508.978V91.0671Z" fill="#949699"/>
<path d="M506.172 87.9785H504.684V88.8022H506.172V87.9785Z" fill="#949699"/>
<path d="M508.978 87.9785H507.49V88.8022H508.978V87.9785Z" fill="#949699"/>
<path d="M506.172 84.8899H504.684V85.7136H506.172V84.8899Z" fill="#949699"/>
<path d="M508.978 84.8899H507.49V85.7136H508.978V84.8899Z" fill="#949699"/>
<path d="M506.172 81.8013H504.684V82.6249H506.172V81.8013Z" fill="#949699"/>
<path d="M508.978 81.8013H507.49V82.6249H508.978V81.8013Z" fill="#949699"/>
<path d="M506.172 78.7127H504.684V79.5363H506.172V78.7127Z" fill="#949699"/>
<path d="M508.978 78.7127H507.49V79.5363H508.978V78.7127Z" fill="#949699"/>
<path d="M506.172 75.6241H504.684V76.4477H506.172V75.6241Z" fill="#949699"/>
<path d="M508.978 75.6241H507.49V76.4477H508.978V75.6241Z" fill="#949699"/>
<path d="M506.172 72.5355H504.684V73.3591H506.172V72.5355Z" fill="#949699"/>
<path d="M508.978 72.5355H507.49V73.3591H508.978V72.5355Z" fill="#949699"/>
<path d="M506.172 69.4469H504.684V70.2705H506.172V69.4469Z" fill="#949699"/>
<path d="M508.978 69.4469H507.49V70.2705H508.978V69.4469Z" fill="#949699"/>
<path d="M506.172 66.3583H504.684V67.1819H506.172V66.3583Z" fill="#949699"/>
<path d="M508.978 66.3583H507.49V67.1819H508.978V66.3583Z" fill="#949699"/>
<path d="M506.172 63.2697H504.684V64.0933H506.172V63.2697Z" fill="#949699"/>
<path d="M508.978 63.2697H507.49V64.0933H508.978V63.2697Z" fill="#949699"/>
<path d="M506.172 60.1811H504.684V61.0047H506.172V60.1811Z" fill="#949699"/>
<path d="M508.978 60.1811H507.49V61.0047H508.978V60.1811Z" fill="#949699"/>
<path d="M506.172 57.0925H504.684V57.9161H506.172V57.0925Z" fill="#949699"/>
<path d="M508.978 57.0925H507.49V57.9161H508.978V57.0925Z" fill="#949699"/>
<path d="M506.172 54.0039H504.684V54.8275H506.172V54.0039Z" fill="#949699"/>
<path d="M508.978 54.0039H507.49V54.8275H508.978V54.0039Z" fill="#949699"/>
<path d="M506.172 50.9153H504.684V51.7389H506.172V50.9153Z" fill="#949699"/>
<path d="M508.978 50.9153H507.49V51.7389H508.978V50.9153Z" fill="#949699"/>
<path d="M506.172 47.8267H504.684V48.6503H506.172V47.8267Z" fill="#949699"/>
<path d="M508.978 47.8267H507.49V48.6503H508.978V47.8267Z" fill="#949699"/>
<path d="M1214.08 60.1811H1211.05V61.0047H1214.08V60.1811Z" fill="#949699"/>
<path d="M1214.08 63.2697H1211.05V64.0933H1214.08V63.2697Z" fill="#949699"/>
<path d="M1214.08 66.3583H1211.05V67.1819H1214.08V66.3583Z" fill="#949699"/>
<path d="M1214.08 69.4469H1211.05V70.2705H1214.08V69.4469Z" fill="#949699"/>
<path d="M1214.08 72.5355H1211.05V73.3591H1214.08V72.5355Z" fill="#949699"/>
<path d="M1214.08 75.6241H1211.05V76.4477H1214.08V75.6241Z" fill="#949699"/>
<path d="M1214.08 78.7127H1211.05V79.5363H1214.08V78.7127Z" fill="#949699"/>
<path d="M1214.08 81.8013H1211.05V82.6249H1214.08V81.8013Z" fill="#949699"/>
<path d="M1214.08 84.8899H1211.05V85.7136H1214.08V84.8899Z" fill="#949699"/>
<path d="M1214.08 87.9785H1211.05V88.8022H1214.08V87.9785Z" fill="#949699"/>
<path d="M1214.08 91.0671H1211.05V91.8908H1214.08V91.0671Z" fill="#949699"/>
<path d="M1214.08 94.1557H1211.05V94.9794H1214.08V94.1557Z" fill="#949699"/>
<path d="M1214.7 45.9735V57.7789H1209.57V97.9993H1228.25V45.9735H1214.7ZM1214.7 97.1757H1210.39V58.6025H1214.7V97.1757ZM1222.16 97.1757H1215.52V46.7972H1222.16V97.1757ZM1227.43 97.1757H1222.98V46.7972H1227.43V97.1757Z" fill="#949699"/>
<path d="M1218.17 94.1557H1216.68V94.9794H1218.17V94.1557Z" fill="#949699"/>
<path d="M1220.98 94.1557H1219.49V94.9794H1220.98V94.1557Z" fill="#949699"/>
<path d="M1218.17 91.0671H1216.68V91.8908H1218.17V91.0671Z" fill="#949699"/>
<path d="M1220.98 91.0671H1219.49V91.8908H1220.98V91.0671Z" fill="#949699"/>
<path d="M1218.17 87.9785H1216.68V88.8022H1218.17V87.9785Z" fill="#949699"/>
<path d="M1220.98 87.9785H1219.49V88.8022H1220.98V87.9785Z" fill="#949699"/>
<path d="M1218.17 84.8899H1216.68V85.7136H1218.17V84.8899Z" fill="#949699"/>
<path d="M1220.98 84.8899H1219.49V85.7136H1220.98V84.8899Z" fill="#949699"/>
<path d="M1218.17 81.8013H1216.68V82.6249H1218.17V81.8013Z" fill="#949699"/>
<path d="M1220.98 81.8013H1219.49V82.6249H1220.98V81.8013Z" fill="#949699"/>
<path d="M1218.17 78.7127H1216.68V79.5363H1218.17V78.7127Z" fill="#949699"/>
<path d="M1220.98 78.7127H1219.49V79.5363H1220.98V78.7127Z" fill="#949699"/>
<path d="M1218.17 75.6241H1216.68V76.4477H1218.17V75.6241Z" fill="#949699"/>
<path d="M1220.98 75.6241H1219.49V76.4477H1220.98V75.6241Z" fill="#949699"/>
<path d="M1218.17 72.5355H1216.68V73.3591H1218.17V72.5355Z" fill="#949699"/>
<path d="M1220.98 72.5355H1219.49V73.3591H1220.98V72.5355Z" fill="#949699"/>
<path d="M1218.17 69.4469H1216.68V70.2705H1218.17V69.4469Z" fill="#949699"/>
<path d="M1220.98 69.4469H1219.49V70.2705H1220.98V69.4469Z" fill="#949699"/>
<path d="M1218.17 66.3583H1216.68V67.1819H1218.17V66.3583Z" fill="#949699"/>
<path d="M1220.98 66.3583H1219.49V67.1819H1220.98V66.3583Z" fill="#949699"/>
<path d="M1218.17 63.2697H1216.68V64.0933H1218.17V63.2697Z" fill="#949699"/>
<path d="M1220.98 63.2697H1219.49V64.0933H1220.98V63.2697Z" fill="#949699"/>
<path d="M1218.17 60.1811H1216.68V61.0047H1218.17V60.1811Z" fill="#949699"/>
<path d="M1220.98 60.1811H1219.49V61.0047H1220.98V60.1811Z" fill="#949699"/>
<path d="M1218.17 57.0925H1216.68V57.9161H1218.17V57.0925Z" fill="#949699"/>
<path d="M1220.98 57.0925H1219.49V57.9161H1220.98V57.0925Z" fill="#949699"/>
<path d="M1218.17 54.0039H1216.68V54.8275H1218.17V54.0039Z" fill="#949699"/>
<path d="M1220.98 54.0039H1219.49V54.8275H1220.98V54.0039Z" fill="#949699"/>
<path d="M1218.17 50.9153H1216.68V51.7389H1218.17V50.9153Z" fill="#949699"/>
<path d="M1220.98 50.9153H1219.49V51.7389H1220.98V50.9153Z" fill="#949699"/>
<path d="M1218.17 47.8267H1216.68V48.6503H1218.17V47.8267Z" fill="#949699"/>
<path d="M1220.98 47.8267H1219.49V48.6503H1220.98V47.8267Z" fill="#949699"/>
<path d="M176.724 59.2202H165.98V60.0438H176.724V59.2202Z" fill="#949699"/>
<path d="M176.725 63.1022H162.189V63.9258H176.725V63.1022Z" fill="#949699"/>
<path d="M172.318 66.9835H162.189V67.8072H172.318V66.9835Z" fill="#949699"/>
<path d="M176.725 70.8656H162.189V71.6892H176.725V70.8656Z" fill="#949699"/>
<path d="M176.724 74.7476H165.98V75.5712H176.724V74.7476Z" fill="#949699"/>
<path d="M176.725 78.6289H162.189V79.4526H176.725V78.6289Z" fill="#949699"/>
<path d="M172.318 82.511H162.189V83.3346H172.318V82.511Z" fill="#949699"/>
<path d="M176.725 86.3923H162.189V87.2159H176.725V86.3923Z" fill="#949699"/>
<path d="M176.724 90.2743H165.98V91.098H176.724V90.2743Z" fill="#949699"/>
<path d="M176.725 94.1557H162.189V94.9793H176.725V94.1557Z" fill="#949699"/>
<path d="M164.55 59.2202H162.189V60.0438H164.55V59.2202Z" fill="#949699"/>
<path d="M176.724 66.976H173.748V67.7996H176.724V66.976Z" fill="#949699"/>
<path d="M164.55 74.7318H162.189V75.5554H164.55V74.7318Z" fill="#949699"/>
<path d="M176.724 82.4876H173.748V83.3113H176.724V82.4876Z" fill="#949699"/>
<path d="M164.55 90.2435H162.189V91.0671H164.55V90.2435Z" fill="#949699"/>
<path d="M166.295 48.4444V55.6511H159.041V97.9993H179.23V48.4444H166.295ZM178.409 97.1757H159.863V56.4747H167.117V49.268H178.409V97.1757Z" fill="#949699"/>
<path d="M176.725 53.2345H168.715V54.0581H176.725V53.2345Z" fill="#949699"/>
<path d="M176.725 55.6367H168.715V56.4603H176.725V55.6367Z" fill="#949699"/>
<path d="M176.725 50.9008H168.715V51.7245H176.725V50.9008Z" fill="#949699"/>
<path d="M888.724 59.2202H877.98V60.0438H888.724V59.2202Z" fill="#949699"/>
<path d="M888.725 63.1022H874.189V63.9258H888.725V63.1022Z" fill="#949699"/>
<path d="M884.318 66.9835H874.189V67.8072H884.318V66.9835Z" fill="#949699"/>
<path d="M888.725 70.8656H874.189V71.6892H888.725V70.8656Z" fill="#949699"/>
<path d="M888.724 74.7476H877.98V75.5712H888.724V74.7476Z" fill="#949699"/>
<path d="M888.725 78.6289H874.189V79.4526H888.725V78.6289Z" fill="#949699"/>
<path d="M884.318 82.511H874.189V83.3346H884.318V82.511Z" fill="#949699"/>
<path d="M888.725 86.3923H874.189V87.2159H888.725V86.3923Z" fill="#949699"/>
<path d="M888.724 90.2743H877.98V91.098H888.724V90.2743Z" fill="#949699"/>
<path d="M888.725 94.1557H874.189V94.9793H888.725V94.1557Z" fill="#949699"/>
<path d="M876.55 59.2202H874.189V60.0438H876.55V59.2202Z" fill="#949699"/>
<path d="M888.724 66.976H885.748V67.7996H888.724V66.976Z" fill="#949699"/>
<path d="M876.55 74.7318H874.189V75.5554H876.55V74.7318Z" fill="#949699"/>
<path d="M888.724 82.4876H885.748V83.3113H888.724V82.4876Z" fill="#949699"/>
<path d="M876.55 90.2435H874.189V91.0671H876.55V90.2435Z" fill="#949699"/>
<path d="M878.295 48.4444V55.6511H871.041V97.9993H891.23V48.4444H878.295ZM890.409 97.1757H871.862V56.4747H879.117V49.268H890.409V97.1757Z" fill="#949699"/>
<path d="M888.725 53.2345H880.715V54.0581H888.725V53.2345Z" fill="#949699"/>
<path d="M888.725 55.6367H880.715V56.4603H888.725V55.6367Z" fill="#949699"/>
<path d="M888.725 50.9008H880.715V51.7245H888.725V50.9008Z" fill="#949699"/>
<path d="M533.111 59.2202H522.367V60.0438H533.111V59.2202Z" fill="#949699"/>
<path d="M533.112 63.1022H518.576V63.9258H533.112V63.1022Z" fill="#949699"/>
<path d="M528.705 66.9835H518.576V67.8072H528.705V66.9835Z" fill="#949699"/>
<path d="M533.112 70.8656H518.576V71.6892H533.112V70.8656Z" fill="#949699"/>
<path d="M533.111 74.7476H522.367V75.5712H533.111V74.7476Z" fill="#949699"/>
<path d="M533.112 78.6289H518.576V79.4526H533.112V78.6289Z" fill="#949699"/>
<path d="M528.705 82.511H518.576V83.3346H528.705V82.511Z" fill="#949699"/>
<path d="M533.112 86.3923H518.576V87.2159H533.112V86.3923Z" fill="#949699"/>
<path d="M533.111 90.2743H522.367V91.098H533.111V90.2743Z" fill="#949699"/>
<path d="M533.112 94.1557H518.576V94.9793H533.112V94.1557Z" fill="#949699"/>
<path d="M520.937 59.2202H518.576V60.0438H520.937V59.2202Z" fill="#949699"/>
<path d="M533.111 66.976H530.135V67.7996H533.111V66.976Z" fill="#949699"/>
<path d="M520.937 74.7318H518.576V75.5554H520.937V74.7318Z" fill="#949699"/>
<path d="M533.111 82.4876H530.135V83.3113H533.111V82.4876Z" fill="#949699"/>
<path d="M520.937 90.2435H518.576V91.0671H520.937V90.2435Z" fill="#949699"/>
<path d="M522.683 48.4444V55.6511H515.428V97.9993H535.617V48.4444H522.683ZM534.796 97.1757H516.25V56.4747H523.504V49.268H534.796V97.1757Z" fill="#949699"/>
<path d="M533.112 53.2345H525.102V54.0581H533.112V53.2345Z" fill="#949699"/>
<path d="M533.112 55.6367H525.102V56.4603H533.112V55.6367Z" fill="#949699"/>
<path d="M533.112 50.9008H525.102V51.7245H533.112V50.9008Z" fill="#949699"/>
<path d="M1245.11 59.2202H1234.37V60.0438H1245.11V59.2202Z" fill="#949699"/>
<path d="M1245.11 63.1022H1230.58V63.9258H1245.11V63.1022Z" fill="#949699"/>
<path d="M1240.7 66.9835H1230.58V67.8072H1240.7V66.9835Z" fill="#949699"/>
<path d="M1245.11 70.8656H1230.58V71.6892H1245.11V70.8656Z" fill="#949699"/>
<path d="M1245.11 74.7476H1234.37V75.5712H1245.11V74.7476Z" fill="#949699"/>
<path d="M1245.11 78.6289H1230.58V79.4526H1245.11V78.6289Z" fill="#949699"/>
<path d="M1240.7 82.511H1230.58V83.3346H1240.7V82.511Z" fill="#949699"/>
<path d="M1245.11 86.3923H1230.58V87.2159H1245.11V86.3923Z" fill="#949699"/>
<path d="M1245.11 90.2743H1234.37V91.098H1245.11V90.2743Z" fill="#949699"/>
<path d="M1245.11 94.1557H1230.58V94.9793H1245.11V94.1557Z" fill="#949699"/>
<path d="M1232.94 59.2202H1230.58V60.0438H1232.94V59.2202Z" fill="#949699"/>
<path d="M1245.11 66.976H1242.14V67.7996H1245.11V66.976Z" fill="#949699"/>
<path d="M1232.94 74.7318H1230.58V75.5554H1232.94V74.7318Z" fill="#949699"/>
<path d="M1245.11 82.4876H1242.14V83.3113H1245.11V82.4876Z" fill="#949699"/>
<path d="M1232.94 90.2435H1230.58V91.0671H1232.94V90.2435Z" fill="#949699"/>
<path d="M1234.68 48.4444V55.6511H1227.43V97.9993H1247.62V48.4444H1234.68ZM1246.8 97.1757H1228.25V56.4747H1235.5V49.268H1246.8V97.1757Z" fill="#949699"/>
<path d="M1245.11 53.2345H1237.1V54.0581H1245.11V53.2345Z" fill="#949699"/>
<path d="M1245.11 55.6367H1237.1V56.4603H1245.11V55.6367Z" fill="#949699"/>
<path d="M1245.11 50.9008H1237.1V51.7245H1245.11V50.9008Z" fill="#949699"/>
<path d="M181.693 37.8059H182.366V93.1262H181.693V93.9498H195.472V93.1262H194.731V37.8059H195.472V36.9822H181.693V37.8059ZM183.187 37.8059H185.252V93.1262H183.187V37.8059ZM188.138 93.1262H186.073V37.8059H188.138V93.1262ZM188.959 37.8059H191.024V93.1262H188.959V37.8059ZM193.91 93.1262H191.845V37.8059H193.91V93.1262Z" fill="#949699"/>
<path d="M189.153 27.8537V32.7955H178.409V97.9993H199.076V27.8537H189.153ZM198.255 97.1757H179.23V33.6191H189.974V28.6773H198.255V97.1757Z" fill="#949699"/>
<path d="M197.216 30.3246H190.964V31.1482H197.216V30.3246Z" fill="#949699"/>
<path d="M197.216 32.8641H190.964V33.6877H197.216V32.8641Z" fill="#949699"/>
<path d="M893.693 37.8059H894.366V93.1262H893.693V93.9498H907.472V93.1262H906.731V37.8059H907.472V36.9822H893.693V37.8059ZM895.187 37.8059H897.252V93.1262H895.187V37.8059ZM900.138 93.1262H898.073V37.8059H900.138V93.1262ZM900.959 37.8059H903.024V93.1262H900.959V37.8059ZM905.91 93.1262H903.845V37.8059H905.91V93.1262Z" fill="#949699"/>
<path d="M901.153 27.8537V32.7955H890.409V97.9993H911.076V27.8537H901.153ZM910.255 97.1757H891.23V33.6191H901.974V28.6773H910.255V97.1757Z" fill="#949699"/>
<path d="M909.216 30.3246H902.964V31.1482H909.216V30.3246Z" fill="#949699"/>
<path d="M909.216 32.8641H902.964V33.6877H909.216V32.8641Z" fill="#949699"/>
<path d="M538.081 37.8059H538.753V93.1262H538.081V93.9498H551.859V93.1262H551.118V37.8059H551.859V36.9822H538.081V37.8059ZM539.575 37.8059H541.639V93.1262H539.575V37.8059ZM544.525 93.1262H542.46V37.8059H544.525V93.1262ZM545.346 37.8059H547.411V93.1262H545.346V37.8059ZM550.297 93.1262H548.232V37.8059H550.297V93.1262Z" fill="#949699"/>
<path d="M545.54 27.8537V32.7955H534.796V97.9993H555.463V27.8537H545.54ZM554.642 97.1757H535.617V33.6191H546.361V28.6773H554.642V97.1757Z" fill="#949699"/>
<path d="M553.603 30.3246H547.352V31.1482H553.603V30.3246Z" fill="#949699"/>
<path d="M553.603 32.8641H547.352V33.6877H553.603V32.8641Z" fill="#949699"/>
<path d="M1250.08 37.8059H1250.75V93.1262H1250.08V93.9498H1263.86V93.1262H1263.12V37.8059H1263.86V36.9822H1250.08V37.8059ZM1251.57 37.8059H1253.64V93.1262H1251.57V37.8059ZM1256.53 93.1262H1254.46V37.8059H1256.53V93.1262ZM1257.35 37.8059H1259.41V93.1262H1257.35V37.8059ZM1262.3 93.1262H1260.23V37.8059H1262.3V93.1262Z" fill="#949699"/>
<path d="M1257.54 27.8537V32.7955H1246.8V97.9993H1267.46V27.8537H1257.54ZM1266.64 97.1757H1247.62V33.6191H1258.36V28.6773H1266.64V97.1757Z" fill="#949699"/>
<path d="M1265.6 30.3246H1259.35V31.1482H1265.6V30.3246Z" fill="#949699"/>
<path d="M1265.6 32.8641H1259.35V33.6877H1265.6V32.8641Z" fill="#949699"/>
<path d="M198.255 51.533V97.9993H217.143V51.533H198.255ZM199.076 54.0725H202.429V68.5546H199.076V54.0725ZM207.288 87.2235V97.1757H203.251V87.2235H207.288ZM208.11 87.2235H212.147V97.1757H208.11V87.2235ZM199.076 86.3999V85.6449H216.322V86.3999H199.076ZM207.288 70.9569V84.8213H203.251V70.9569H207.288ZM208.11 84.8213V70.9569H212.147V84.8213H208.11ZM199.076 70.1332V69.3782H216.322V70.1332H199.076ZM208.11 68.5546V54.0725H212.147V68.5546H208.11ZM207.288 68.5546H203.251V54.0725H207.288V68.5546ZM199.076 70.9569H202.429V84.8213H199.076V70.9569ZM199.076 87.2235H202.429V97.1757H199.076V87.2235ZM216.322 97.1757H212.968V87.2235H216.322V97.1757ZM216.322 84.8213H212.968V70.9569H216.322V84.8213ZM216.322 68.5546H212.968V54.0725H216.322V68.5546ZM199.076 53.2489V52.3566H216.322V53.2489H199.076Z" fill="#949699"/>
<path d="M910.255 51.533V97.9993H929.143V51.533H910.255ZM911.076 54.0725H914.429V68.5546H911.076V54.0725ZM919.288 87.2235V97.1757H915.251V87.2235H919.288ZM920.11 87.2235H924.147V97.1757H920.11V87.2235ZM911.076 86.3999V85.6449H928.322V86.3999H911.076ZM919.288 70.9569V84.8213H915.251V70.9569H919.288ZM920.11 84.8213V70.9569H924.147V84.8213H920.11ZM911.076 70.1332V69.3782H928.322V70.1332H911.076ZM920.11 68.5546V54.0725H924.147V68.5546H920.11ZM919.288 68.5546H915.251V54.0725H919.288V68.5546ZM911.076 70.9569H914.429V84.8213H911.076V70.9569ZM911.076 87.2235H914.429V97.1757H911.076V87.2235ZM928.322 97.1757H924.968V87.2235H928.322V97.1757ZM928.322 84.8213H924.968V70.9569H928.322V84.8213ZM928.322 68.5546H924.968V54.0725H928.322V68.5546ZM911.076 53.2489V52.3566H928.322V53.2489H911.076Z" fill="#949699"/>
<path d="M554.642 51.533V97.9993H573.53V51.533H554.642ZM555.463 54.0725H558.817V68.5546H555.463V54.0725ZM563.675 87.2235V97.1757H559.638V87.2235H563.675ZM564.497 87.2235H568.534V97.1757H564.497V87.2235ZM555.463 86.3999V85.6449H572.709V86.3999H555.463ZM563.675 70.9569V84.8213H559.638V70.9569H563.675ZM564.497 84.8213V70.9569H568.534V84.8213H564.497ZM555.463 70.1332V69.3782H572.709V70.1332H555.463ZM564.497 68.5546V54.0725H568.534V68.5546H564.497ZM563.675 68.5546H559.638V54.0725H563.675V68.5546ZM555.463 70.9569H558.817V84.8213H555.463V70.9569ZM555.463 87.2235H558.817V97.1757H555.463V87.2235ZM572.709 97.1757H569.356V87.2235H572.709V97.1757ZM572.709 84.8213H569.356V70.9569H572.709V84.8213ZM572.709 68.5546H569.356V54.0725H572.709V68.5546ZM555.463 53.2489V52.3566H572.709V53.2489H555.463Z" fill="#949699"/>
<path d="M1266.64 51.533V97.9993H1285.53V51.533H1266.64ZM1267.46 54.0725H1270.82V68.5546H1267.46V54.0725ZM1275.68 87.2235V97.1757H1271.64V87.2235H1275.68ZM1276.5 87.2235H1280.53V97.1757H1276.5V87.2235ZM1267.46 86.3999V85.6449H1284.71V86.3999H1267.46ZM1275.68 70.9569V84.8213H1271.64V70.9569H1275.68ZM1276.5 84.8213V70.9569H1280.53V84.8213H1276.5ZM1267.46 70.1332V69.3782H1284.71V70.1332H1267.46ZM1276.5 68.5546V54.0725H1280.53V68.5546H1276.5ZM1275.68 68.5546H1271.64V54.0725H1275.68V68.5546ZM1267.46 70.9569H1270.82V84.8213H1267.46V70.9569ZM1267.46 87.2235H1270.82V97.1757H1267.46V87.2235ZM1284.71 97.1757H1281.36V87.2235H1284.71V97.1757ZM1284.71 84.8213H1281.36V70.9569H1284.71V84.8213ZM1284.71 68.5546H1281.36V54.0725H1284.71V68.5546ZM1267.46 53.2489V52.3566H1284.71V53.2489H1267.46Z" fill="#949699"/>
<path d="M222.647 50.6023L218.371 47.3778V95.9444H222.647V50.6023ZM221.826 95.1207H219.193V49.0278L221.826 51.0141V95.1207Z" fill="#949699"/>
<path d="M235.753 36.9781H227.027V37.8018H235.753V36.9781Z" fill="#949699"/>
<path d="M235.753 41.0304H227.027V41.854H235.753V41.0304Z" fill="#949699"/>
<path d="M235.753 45.0826H227.027V45.9062H235.753V45.0826Z" fill="#949699"/>
<path d="M235.753 49.1356H227.027V49.9592H235.753V49.1356Z" fill="#949699"/>
<path d="M235.753 53.1878H227.027V54.0114H235.753V53.1878Z" fill="#949699"/>
<path d="M235.753 57.24H227.027V58.0637H235.753V57.24Z" fill="#949699"/>
<path d="M235.753 61.2923H227.027V62.1159H235.753V61.2923Z" fill="#949699"/>
<path d="M235.753 65.3445H227.027V66.1682H235.753V65.3445Z" fill="#949699"/>
<path d="M235.753 69.3968H227.027V70.2204H235.753V69.3968Z" fill="#949699"/>
<path d="M235.753 73.449H227.027V74.2727H235.753V73.449Z" fill="#949699"/>
<path d="M235.753 77.5013H227.027V78.3249H235.753V77.5013Z" fill="#949699"/>
<path d="M235.753 81.5535H227.027V82.3771H235.753V81.5535Z" fill="#949699"/>
<path d="M235.753 85.6065H227.027V86.4301H235.753V85.6065Z" fill="#949699"/>
<path d="M235.753 89.6587H227.027V90.4824H235.753V89.6587Z" fill="#949699"/>
<path d="M235.753 93.7109H227.027V94.5346H235.753V93.7109Z" fill="#949699"/>
<path d="M238.857 36.0062V33.6321H238.868V22.4136H234.671V13.5967H232.889V8.79291H232.067V13.5967H231.106V0H230.285V32.8085H223.924V48.9928L216.322 43.2603V97.9993H245.544V41.2411L238.857 36.0056V36.0062ZM223.876 97.1757H217.143V44.9097L223.876 49.9873V97.1757ZM231.105 14.4197H233.85V22.413H232.835V32.8078H231.105V14.4197ZM238.036 32.8085V97.1757H224.744V33.6321H233.656V23.2373H238.046V32.8085H238.035H238.036ZM244.723 97.1757H238.868V37.0591L244.723 41.6433V97.1757Z" fill="#949699"/>
<path d="M243.494 42.2445L240.096 39.5842V95.9444H243.494V42.2445ZM242.673 95.1207H240.918V41.272L242.673 42.6467V95.1207Z" fill="#949699"/>
<path d="M934.647 50.6023L930.371 47.3778V95.9444H934.647V50.6023ZM933.826 95.1207H931.193V49.0278L933.826 51.0141V95.1207Z" fill="#949699"/>
<path d="M947.753 36.9781H939.027V37.8018H947.753V36.9781Z" fill="#949699"/>
<path d="M947.753 41.0304H939.027V41.854H947.753V41.0304Z" fill="#949699"/>
<path d="M947.753 45.0826H939.027V45.9062H947.753V45.0826Z" fill="#949699"/>
<path d="M947.753 49.1356H939.027V49.9592H947.753V49.1356Z" fill="#949699"/>
<path d="M947.753 53.1878H939.027V54.0114H947.753V53.1878Z" fill="#949699"/>
<path d="M947.753 57.24H939.027V58.0637H947.753V57.24Z" fill="#949699"/>
<path d="M947.753 61.2923H939.027V62.1159H947.753V61.2923Z" fill="#949699"/>
<path d="M947.753 65.3445H939.027V66.1682H947.753V65.3445Z" fill="#949699"/>
<path d="M947.753 69.3968H939.027V70.2204H947.753V69.3968Z" fill="#949699"/>
<path d="M947.753 73.449H939.027V74.2727H947.753V73.449Z" fill="#949699"/>
<path d="M947.753 77.5013H939.027V78.3249H947.753V77.5013Z" fill="#949699"/>
<path d="M947.753 81.5535H939.027V82.3771H947.753V81.5535Z" fill="#949699"/>
<path d="M947.753 85.6065H939.027V86.4301H947.753V85.6065Z" fill="#949699"/>
<path d="M947.753 89.6587H939.027V90.4824H947.753V89.6587Z" fill="#949699"/>
<path d="M947.753 93.7109H939.027V94.5346H947.753V93.7109Z" fill="#949699"/>
<path d="M950.857 36.0062V33.6321H950.868V22.4136H946.671V13.5967H944.889V8.79291H944.067V13.5967H943.106V0H942.285V32.8085H935.924V48.9928L928.322 43.2603V97.9993H957.544V41.2411L950.857 36.0056V36.0062ZM935.876 97.1757H929.143V44.9097L935.876 49.9873V97.1757ZM943.105 14.4197H945.85V22.413H944.835V32.8078H943.105V14.4197ZM950.036 32.8085V97.1757H936.744V33.6321H945.656V23.2373H950.046V32.8085H950.035H950.036ZM956.722 97.1757H950.868V37.0591L956.722 41.6433V97.1757Z" fill="#949699"/>
<path d="M955.494 42.2445L952.096 39.5842V95.9444H955.494V42.2445ZM954.673 95.1207H952.918V41.272L954.673 42.6467V95.1207Z" fill="#949699"/>
<path d="M579.034 50.6023L574.759 47.3778V95.9444H579.034V50.6023ZM578.213 95.1207H575.58V49.0278L578.213 51.0141V95.1207Z" fill="#949699"/>
<path d="M592.14 36.9781H583.414V37.8018H592.14V36.9781Z" fill="#949699"/>
<path d="M592.14 41.0304H583.414V41.854H592.14V41.0304Z" fill="#949699"/>
<path d="M592.14 45.0826H583.414V45.9062H592.14V45.0826Z" fill="#949699"/>
<path d="M592.14 49.1356H583.414V49.9592H592.14V49.1356Z" fill="#949699"/>
<path d="M592.14 53.1878H583.414V54.0114H592.14V53.1878Z" fill="#949699"/>
<path d="M592.14 57.24H583.414V58.0637H592.14V57.24Z" fill="#949699"/>
<path d="M592.14 61.2923H583.414V62.1159H592.14V61.2923Z" fill="#949699"/>
<path d="M592.14 65.3445H583.414V66.1682H592.14V65.3445Z" fill="#949699"/>
<path d="M592.14 69.3968H583.414V70.2204H592.14V69.3968Z" fill="#949699"/>
<path d="M592.14 73.449H583.414V74.2727H592.14V73.449Z" fill="#949699"/>
<path d="M592.14 77.5013H583.414V78.3249H592.14V77.5013Z" fill="#949699"/>
<path d="M592.14 81.5535H583.414V82.3771H592.14V81.5535Z" fill="#949699"/>
<path d="M592.14 85.6065H583.414V86.4301H592.14V85.6065Z" fill="#949699"/>
<path d="M592.14 89.6587H583.414V90.4824H592.14V89.6587Z" fill="#949699"/>
<path d="M592.14 93.7109H583.414V94.5346H592.14V93.7109Z" fill="#949699"/>
<path d="M595.244 36.0062V33.6321H595.255V22.4136H591.059V13.5967H589.276V8.79291H588.455V13.5967H587.493V0H586.672V32.8085H580.311V48.9928L572.709 43.2603V97.9993H601.931V41.2411L595.244 36.0056V36.0062ZM580.263 97.1757H573.53V44.9097L580.263 49.9873V97.1757ZM587.492 14.4197H590.237V22.413H589.222V32.8078H587.492V14.4197ZM594.423 32.8085V97.1757H581.131V33.6321H590.043V23.2373H594.433V32.8085H594.422H594.423ZM601.11 97.1757H595.255V37.0591L601.11 41.6433V97.1757Z" fill="#949699"/>
<path d="M599.881 42.2445L596.483 39.5842V95.9444H599.881V42.2445ZM599.06 95.1207H597.305V41.272L599.06 42.6467V95.1207Z" fill="#949699"/>
<path d="M1291.03 50.6023L1286.76 47.3778V95.9444H1291.03V50.6023ZM1290.21 95.1207H1287.58V49.0278L1290.21 51.0141V95.1207Z" fill="#949699"/>
<path d="M1304.14 36.9781H1295.41V37.8018H1304.14V36.9781Z" fill="#949699"/>
<path d="M1304.14 41.0304H1295.41V41.854H1304.14V41.0304Z" fill="#949699"/>
<path d="M1304.14 45.0826H1295.41V45.9062H1304.14V45.0826Z" fill="#949699"/>
<path d="M1304.14 49.1356H1295.41V49.9592H1304.14V49.1356Z" fill="#949699"/>
<path d="M1304.14 53.1878H1295.41V54.0114H1304.14V53.1878Z" fill="#949699"/>
<path d="M1304.14 57.24H1295.41V58.0637H1304.14V57.24Z" fill="#949699"/>
<path d="M1304.14 61.2923H1295.41V62.1159H1304.14V61.2923Z" fill="#949699"/>
<path d="M1304.14 65.3445H1295.41V66.1682H1304.14V65.3445Z" fill="#949699"/>
<path d="M1304.14 69.3968H1295.41V70.2204H1304.14V69.3968Z" fill="#949699"/>
<path d="M1304.14 73.449H1295.41V74.2727H1304.14V73.449Z" fill="#949699"/>
<path d="M1304.14 77.5013H1295.41V78.3249H1304.14V77.5013Z" fill="#949699"/>
<path d="M1304.14 81.5535H1295.41V82.3771H1304.14V81.5535Z" fill="#949699"/>
<path d="M1304.14 85.6065H1295.41V86.4301H1304.14V85.6065Z" fill="#949699"/>
<path d="M1304.14 89.6587H1295.41V90.4824H1304.14V89.6587Z" fill="#949699"/>
<path d="M1304.14 93.7109H1295.41V94.5346H1304.14V93.7109Z" fill="#949699"/>
<path d="M1307.24 36.0062V33.6321H1307.26V22.4136H1303.06V13.5967H1301.28V8.79291H1300.45V13.5967H1299.49V0H1298.67V32.8085H1292.31V48.9928L1284.71 43.2603V97.9993H1313.93V41.2411L1307.24 36.0056V36.0062ZM1292.26 97.1757H1285.53V44.9097L1292.26 49.9873V97.1757ZM1299.49 14.4197H1302.24V22.413H1301.22V32.8078H1299.49V14.4197ZM1306.42 32.8085V97.1757H1293.13V33.6321H1302.04V23.2373H1306.43V32.8085H1306.42H1306.42ZM1313.11 97.1757H1307.26V37.0591L1313.11 41.6433V97.1757Z" fill="#949699"/>
<path d="M1311.88 42.2445L1308.48 39.5842V95.9444H1311.88V42.2445ZM1311.06 95.1207H1309.3V41.272L1311.06 42.6467V95.1207Z" fill="#949699"/>
<path d="M244.723 52.6751V98H258.341V38.0674L244.723 52.6751ZM257.52 65.9121H255.262V44.8753H255.165L257.52 42.3495V65.9121ZM245.544 66.7358H247.871V82.9681H245.544V66.7358ZM248.692 66.7358H251.156V82.9681H248.692V66.7358ZM251.156 83.7917V97.1757H248.692V83.7917H251.156ZM251.977 83.7917H254.44V97.1757H251.977V83.7917ZM251.977 82.9681V66.7358H254.44V82.9681H251.977ZM255.262 66.7358H257.52V82.9681H255.262V66.7358ZM254.44 65.9121H251.977V48.2954L254.44 45.653V65.9121ZM251.156 65.9121H248.692V51.8192L251.156 49.1767V65.9121ZM247.871 65.9121H245.544V55.1961L247.871 52.7005V65.9128V65.9121ZM245.544 83.7917H247.871V97.1757H245.544V83.7917ZM255.262 97.1757V83.7917H257.52V97.1757H255.262ZM245.544 53.9901V52.9997L257.52 40.1532V41.1436L245.544 53.9901Z" fill="#949699"/>
<path d="M956.723 52.6751V98H970.341V38.0674L956.723 52.6751ZM969.52 65.9121H967.262V44.8753H967.165L969.52 42.3495V65.9121ZM957.544 66.7358H959.871V82.9681H957.544V66.7358ZM960.692 66.7358H963.156V82.9681H960.692V66.7358ZM963.156 83.7917V97.1757H960.692V83.7917H963.156ZM963.977 83.7917H966.44V97.1757H963.977V83.7917ZM963.977 82.9681V66.7358H966.44V82.9681H963.977ZM967.262 66.7358H969.52V82.9681H967.262V66.7358ZM966.44 65.9121H963.977V48.2954L966.44 45.653V65.9121ZM963.156 65.9121H960.692V51.8192L963.156 49.1767V65.9121ZM959.871 65.9121H957.544V55.1961L959.871 52.7005V65.9128V65.9121ZM957.544 83.7917H959.871V97.1757H957.544V83.7917ZM967.262 97.1757V83.7917H969.52V97.1757H967.262ZM957.544 53.9901V52.9997L969.52 40.1532V41.1436L957.544 53.9901Z" fill="#949699"/>
<path d="M601.11 52.6751V98H614.728V38.0674L601.11 52.6751ZM613.907 65.9121H611.649V44.8753H611.552L613.907 42.3495V65.9121ZM601.931 66.7358H604.258V82.9681H601.931V66.7358ZM605.079 66.7358H607.543V82.9681H605.079V66.7358ZM607.543 83.7917V97.1757H605.079V83.7917H607.543ZM608.364 83.7917H610.828V97.1757H608.364V83.7917ZM608.364 82.9681V66.7358H610.828V82.9681H608.364ZM611.649 66.7358H613.907V82.9681H611.649V66.7358ZM610.828 65.9121H608.364V48.2954L610.828 45.653V65.9121ZM607.543 65.9121H605.079V51.8192L607.543 49.1767V65.9121ZM604.258 65.9121H601.931V55.1961L604.258 52.7005V65.9128V65.9121ZM601.931 83.7917H604.258V97.1757H601.931V83.7917ZM611.649 97.1757V83.7917H613.907V97.1757H611.649ZM601.931 53.9901V52.9997L613.907 40.1532V41.1436L601.931 53.9901Z" fill="#949699"/>
<path d="M1313.11 52.6751V98H1326.73V38.0674L1313.11 52.6751ZM1325.91 65.9121H1323.65V44.8753H1323.55L1325.91 42.3495V65.9121ZM1313.93 66.7358H1316.26V82.9681H1313.93V66.7358ZM1317.08 66.7358H1319.54V82.9681H1317.08V66.7358ZM1319.54 83.7917V97.1757H1317.08V83.7917H1319.54ZM1320.36 83.7917H1322.83V97.1757H1320.36V83.7917ZM1320.36 82.9681V66.7358H1322.83V82.9681H1320.36ZM1323.65 66.7358H1325.91V82.9681H1323.65V66.7358ZM1322.83 65.9121H1320.36V48.2954L1322.83 45.653V65.9121ZM1319.54 65.9121H1317.08V51.8192L1319.54 49.1767V65.9121ZM1316.26 65.9121H1313.93V55.1961L1316.26 52.7005V65.9128V65.9121ZM1313.93 83.7917H1316.26V97.1757H1313.93V83.7917ZM1323.65 97.1757V83.7917H1325.91V97.1757H1323.65ZM1313.93 53.9901V52.9997L1325.91 40.1532V41.1436L1313.93 53.9901Z" fill="#949699"/>
<path d="M267.346 58.0534H260.326V58.877H267.346V58.0534Z" fill="#949699"/>
<path d="M264.295 61.085H260.326V61.9086H264.295V61.085Z" fill="#949699"/>
<path d="M267.346 64.1166H260.326V64.9403H267.346V64.1166Z" fill="#949699"/>
<path d="M264.295 67.1476H260.326V67.9712H264.295V67.1476Z" fill="#949699"/>
<path d="M267.346 70.1792H260.326V71.0028H267.346V70.1792Z" fill="#949699"/>
<path d="M264.295 73.2218H260.326V74.0455H264.295V73.2218Z" fill="#949699"/>
<path d="M267.346 76.2418H260.326V77.0654H267.346V76.2418Z" fill="#949699"/>
<path d="M264.295 79.2734H260.326V80.0971H264.295V79.2734Z" fill="#949699"/>
<path d="M267.346 82.3051H260.326V83.1287H267.346V82.3051Z" fill="#949699"/>
<path d="M264.295 85.336H260.326V86.1597H264.295V85.336Z" fill="#949699"/>
<path d="M267.346 88.3677H260.326V89.1913H267.346V88.3677Z" fill="#949699"/>
<path d="M264.295 91.3993H260.326V92.2229H264.295V91.3993Z" fill="#949699"/>
<path d="M267.346 94.4302H260.326V95.2539H267.346V94.4302Z" fill="#949699"/>
<path d="M267.346 61.085H265.611V61.9086H267.346V61.085Z" fill="#949699"/>
<path d="M267.346 67.1249H265.611V67.9486H267.346V67.1249Z" fill="#949699"/>
<path d="M267.346 73.2218H265.611V74.0455H267.346V73.2218Z" fill="#949699"/>
<path d="M267.346 79.2618H265.611V80.0854H267.346V79.2618Z" fill="#949699"/>
<path d="M267.346 85.3703H265.611V86.194H267.346V85.3703Z" fill="#949699"/>
<path d="M267.346 91.4103H265.611V92.2339H267.346V91.4103Z" fill="#949699"/>
<path d="M269.359 49.5426V55.2393H257.52V97.9993H276.613V49.5426H269.359ZM269.359 97.1757H258.341V56.0629H269.359V97.1757ZM275.792 97.1757H270.181V50.3662H275.792V97.1757Z" fill="#949699"/>
<path d="M274.424 51.9448H271.549V95.597H274.424V51.9448ZM273.602 94.7734H272.37V52.7684H273.602V94.7734Z" fill="#949699"/>
<path d="M979.346 58.0534H972.326V58.877H979.346V58.0534Z" fill="#949699"/>
<path d="M976.295 61.085H972.326V61.9086H976.295V61.085Z" fill="#949699"/>
<path d="M979.346 64.1166H972.326V64.9403H979.346V64.1166Z" fill="#949699"/>
<path d="M976.295 67.1476H972.326V67.9712H976.295V67.1476Z" fill="#949699"/>
<path d="M979.346 70.1792H972.326V71.0028H979.346V70.1792Z" fill="#949699"/>
<path d="M976.295 73.2218H972.326V74.0455H976.295V73.2218Z" fill="#949699"/>
<path d="M979.346 76.2418H972.326V77.0654H979.346V76.2418Z" fill="#949699"/>
<path d="M976.295 79.2734H972.326V80.0971H976.295V79.2734Z" fill="#949699"/>
<path d="M979.346 82.3051H972.326V83.1287H979.346V82.3051Z" fill="#949699"/>
<path d="M976.295 85.336H972.326V86.1597H976.295V85.336Z" fill="#949699"/>
<path d="M979.346 88.3677H972.326V89.1913H979.346V88.3677Z" fill="#949699"/>
<path d="M976.295 91.3993H972.326V92.2229H976.295V91.3993Z" fill="#949699"/>
<path d="M979.346 94.4302H972.326V95.2539H979.346V94.4302Z" fill="#949699"/>
<path d="M979.346 61.085H977.611V61.9086H979.346V61.085Z" fill="#949699"/>
<path d="M979.346 67.1249H977.611V67.9486H979.346V67.1249Z" fill="#949699"/>
<path d="M979.346 73.2218H977.611V74.0455H979.346V73.2218Z" fill="#949699"/>
<path d="M979.346 79.2618H977.611V80.0854H979.346V79.2618Z" fill="#949699"/>
<path d="M979.346 85.3703H977.611V86.194H979.346V85.3703Z" fill="#949699"/>
<path d="M979.346 91.4103H977.611V92.2339H979.346V91.4103Z" fill="#949699"/>
<path d="M981.359 49.5426V55.2393H969.52V97.9993H988.613V49.5426H981.359ZM981.359 97.1757H970.341V56.0629H981.359V97.1757ZM987.792 97.1757H982.18V50.3662H987.792V97.1757Z" fill="#949699"/>
<path d="M986.423 51.9448H983.549V95.597H986.423V51.9448ZM985.602 94.7734H984.37V52.7684H985.602V94.7734Z" fill="#949699"/>
<path d="M623.733 58.0534H616.713V58.877H623.733V58.0534Z" fill="#949699"/>
<path d="M620.682 61.085H616.713V61.9086H620.682V61.085Z" fill="#949699"/>
<path d="M623.733 64.1166H616.713V64.9403H623.733V64.1166Z" fill="#949699"/>
<path d="M620.682 67.1476H616.713V67.9712H620.682V67.1476Z" fill="#949699"/>
<path d="M623.733 70.1792H616.713V71.0028H623.733V70.1792Z" fill="#949699"/>
<path d="M620.682 73.2218H616.713V74.0455H620.682V73.2218Z" fill="#949699"/>
<path d="M623.733 76.2418H616.713V77.0654H623.733V76.2418Z" fill="#949699"/>
<path d="M620.682 79.2734H616.713V80.0971H620.682V79.2734Z" fill="#949699"/>
<path d="M623.733 82.3051H616.713V83.1287H623.733V82.3051Z" fill="#949699"/>
<path d="M620.682 85.336H616.713V86.1597H620.682V85.336Z" fill="#949699"/>
<path d="M623.733 88.3677H616.713V89.1913H623.733V88.3677Z" fill="#949699"/>
<path d="M620.682 91.3993H616.713V92.2229H620.682V91.3993Z" fill="#949699"/>
<path d="M623.733 94.4302H616.713V95.2539H623.733V94.4302Z" fill="#949699"/>
<path d="M623.733 61.085H621.998V61.9086H623.733V61.085Z" fill="#949699"/>
<path d="M623.733 67.1249H621.998V67.9486H623.733V67.1249Z" fill="#949699"/>
<path d="M623.733 73.2218H621.998V74.0455H623.733V73.2218Z" fill="#949699"/>
<path d="M623.733 79.2618H621.998V80.0854H623.733V79.2618Z" fill="#949699"/>
<path d="M623.733 85.3703H621.998V86.194H623.733V85.3703Z" fill="#949699"/>
<path d="M623.733 91.4103H621.998V92.2339H623.733V91.4103Z" fill="#949699"/>
<path d="M625.746 49.5426V55.2393H613.907V97.9993H633.001V49.5426H625.746ZM625.746 97.1757H614.728V56.0629H625.746V97.1757ZM632.179 97.1757H626.568V50.3662H632.179V97.1757Z" fill="#949699"/>
<path d="M630.811 51.9448H627.936V95.597H630.811V51.9448ZM629.989 94.7734H628.758V52.7684H629.989V94.7734Z" fill="#949699"/>
<path d="M1335.73 58.0534H1328.71V58.877H1335.73V58.0534Z" fill="#949699"/>
<path d="M1332.68 61.085H1328.71V61.9086H1332.68V61.085Z" fill="#949699"/>
<path d="M1335.73 64.1166H1328.71V64.9403H1335.73V64.1166Z" fill="#949699"/>
<path d="M1332.68 67.1476H1328.71V67.9712H1332.68V67.1476Z" fill="#949699"/>
<path d="M1335.73 70.1792H1328.71V71.0028H1335.73V70.1792Z" fill="#949699"/>
<path d="M1332.68 73.2218H1328.71V74.0455H1332.68V73.2218Z" fill="#949699"/>
<path d="M1335.73 76.2418H1328.71V77.0654H1335.73V76.2418Z" fill="#949699"/>
<path d="M1332.68 79.2734H1328.71V80.0971H1332.68V79.2734Z" fill="#949699"/>
<path d="M1335.73 82.3051H1328.71V83.1287H1335.73V82.3051Z" fill="#949699"/>
<path d="M1332.68 85.336H1328.71V86.1597H1332.68V85.336Z" fill="#949699"/>
<path d="M1335.73 88.3677H1328.71V89.1913H1335.73V88.3677Z" fill="#949699"/>
<path d="M1332.68 91.3993H1328.71V92.2229H1332.68V91.3993Z" fill="#949699"/>
<path d="M1335.73 94.4302H1328.71V95.2539H1335.73V94.4302Z" fill="#949699"/>
<path d="M1335.73 61.085H1334V61.9086H1335.73V61.085Z" fill="#949699"/>
<path d="M1335.73 67.1249H1334V67.9486H1335.73V67.1249Z" fill="#949699"/>
<path d="M1335.73 73.2218H1334V74.0455H1335.73V73.2218Z" fill="#949699"/>
<path d="M1335.73 79.2618H1334V80.0854H1335.73V79.2618Z" fill="#949699"/>
<path d="M1335.73 85.3703H1334V86.194H1335.73V85.3703Z" fill="#949699"/>
<path d="M1335.73 91.4103H1334V92.2339H1335.73V91.4103Z" fill="#949699"/>
<path d="M1337.75 49.5426V55.2393H1325.91V97.9993H1345V49.5426H1337.75ZM1337.75 97.1757H1326.73V56.0629H1337.75V97.1757ZM1344.18 97.1757H1338.57V50.3662H1344.18V97.1757Z" fill="#949699"/>
<path d="M1342.81 51.9448H1339.94V95.597H1342.81V51.9448ZM1341.99 94.7734H1340.76V52.7684H1341.99V94.7734Z" fill="#949699"/>
<path d="M281.643 94.7734H277.982V95.597H281.643V94.7734Z" fill="#949699"/>
<path d="M281.643 92.3712H277.982V93.1948H281.643V92.3712Z" fill="#949699"/>
<path d="M281.643 89.9689H277.982V90.7925H281.643V89.9689Z" fill="#949699"/>
<path d="M281.643 87.5667H277.982V88.3903H281.643V87.5667Z" fill="#949699"/>
<path d="M281.643 85.1644H277.982V85.9881H281.643V85.1644Z" fill="#949699"/>
<path d="M287.084 95.597H293.791V64.3678H287.084V95.597ZM289.867 94.7734V65.1915H291.008V94.7734H289.867ZM292.97 94.7734H291.829V65.1915H292.97V94.7734ZM287.905 65.1915H289.046V94.7734H287.905V65.1915Z" fill="#949699"/>
<path d="M295.707 83.9976V61.7597H293.38V57.0238H292.148V51.9517H291.327V57.0238H290.848V55.3766H290.027V57.0238H287.495V61.7597H285.168V67.8683H283.046V73.9768H279.419V82.2817H275.792V97.9993H298.855V83.9976H295.707ZM288.316 57.8475H292.559V61.7597H292.148V58.8084H291.327V61.7597H290.848V58.8084H290.027V61.7597H289.548V58.8084H288.727V61.7597H288.316V57.8475ZM283.046 97.1757H276.613V83.1054H280.241V74.8004H283.046V97.1757ZM285.168 97.1757H283.868V68.6919H285.168V97.1757ZM294.886 97.1757H285.989V62.5833H294.886V97.1757ZM298.034 97.1757H295.707V84.8213H298.034V97.1757Z" fill="#949699"/>
<path d="M993.643 94.7734H989.982V95.597H993.643V94.7734Z" fill="#949699"/>
<path d="M993.643 92.3712H989.982V93.1948H993.643V92.3712Z" fill="#949699"/>
<path d="M993.643 89.9689H989.982V90.7925H993.643V89.9689Z" fill="#949699"/>
<path d="M993.643 87.5667H989.982V88.3903H993.643V87.5667Z" fill="#949699"/>
<path d="M993.643 85.1644H989.982V85.9881H993.643V85.1644Z" fill="#949699"/>
<path d="M999.084 95.597H1005.79V64.3678H999.084V95.597ZM1001.87 94.7734V65.1915H1003.01V94.7734H1001.87ZM1004.97 94.7734H1003.83V65.1915H1004.97V94.7734ZM999.905 65.1915H1001.05V94.7734H999.905V65.1915Z" fill="#949699"/>
<path d="M1007.71 83.9976V61.7597H1005.38V57.0238H1004.15V51.9517H1003.33V57.0238H1002.85V55.3766H1002.03V57.0238H999.495V61.7597H997.168V67.8683H995.046V73.9768H991.419V82.2817H987.792V97.9993H1010.85V83.9976H1007.71ZM1000.32 57.8475H1004.56V61.7597H1004.15V58.8084H1003.33V61.7597H1002.85V58.8084H1002.03V61.7597H1001.55V58.8084H1000.73V61.7597H1000.32V57.8475ZM995.046 97.1757H988.613V83.1054H992.241V74.8004H995.046V97.1757ZM997.168 97.1757H995.868V68.6919H997.168V97.1757ZM1006.89 97.1757H997.989V62.5833H1006.89V97.1757ZM1010.03 97.1757H1007.71V84.8213H1010.03V97.1757Z" fill="#949699"/>
<path d="M638.031 94.7734H634.369V95.597H638.031V94.7734Z" fill="#949699"/>
<path d="M638.031 92.3712H634.369V93.1948H638.031V92.3712Z" fill="#949699"/>
<path d="M638.031 89.9689H634.369V90.7925H638.031V89.9689Z" fill="#949699"/>
<path d="M638.031 87.5667H634.369V88.3903H638.031V87.5667Z" fill="#949699"/>
<path d="M638.031 85.1644H634.369V85.9881H638.031V85.1644Z" fill="#949699"/>
<path d="M643.471 95.597H650.178V64.3678H643.471V95.597ZM646.254 94.7734V65.1915H647.395V94.7734H646.254ZM649.357 94.7734H648.216V65.1915H649.357V94.7734ZM644.292 65.1915H645.433V94.7734H644.292V65.1915Z" fill="#949699"/>
<path d="M652.094 83.9976V61.7597H649.767V57.0238H648.535V51.9517H647.714V57.0238H647.235V55.3766H646.414V57.0238H643.882V61.7597H641.555V67.8683H639.434V73.9768H635.806V82.2817H632.179V97.9993H655.242V83.9976H652.094ZM644.703 57.8475H648.946V61.7597H648.535V58.8084H647.714V61.7597H647.235V58.8084H646.414V61.7597H645.935V58.8084H645.114V61.7597H644.703V57.8475ZM639.434 97.1757H633.001V83.1054H636.628V74.8004H639.434V97.1757ZM641.555 97.1757H640.255V68.6919H641.555V97.1757ZM651.273 97.1757H642.376V62.5833H651.273V97.1757ZM654.421 97.1757H652.094V84.8213H654.421V97.1757Z" fill="#949699"/>
<path d="M1350.03 94.7734H1346.37V95.597H1350.03V94.7734Z" fill="#949699"/>
<path d="M1350.03 92.3712H1346.37V93.1948H1350.03V92.3712Z" fill="#949699"/>
<path d="M1350.03 89.9689H1346.37V90.7925H1350.03V89.9689Z" fill="#949699"/>
<path d="M1350.03 87.5667H1346.37V88.3903H1350.03V87.5667Z" fill="#949699"/>
<path d="M1350.03 85.1644H1346.37V85.9881H1350.03V85.1644Z" fill="#949699"/>
<path d="M1355.47 95.597H1362.18V64.3678H1355.47V95.597ZM1358.25 94.7734V65.1915H1359.39V94.7734H1358.25ZM1361.36 94.7734H1360.22V65.1915H1361.36V94.7734ZM1356.29 65.1915H1357.43V94.7734H1356.29V65.1915Z" fill="#949699"/>
<path d="M1364.09 83.9976V61.7597H1361.77V57.0238H1360.54V51.9517H1359.71V57.0238H1359.24V55.3766H1358.41V57.0238H1355.88V61.7597H1353.56V67.8683H1351.43V73.9768H1347.81V82.2817H1344.18V97.9993H1367.24V83.9976H1364.09ZM1356.7 57.8475H1360.95V61.7597H1360.54V58.8084H1359.71V61.7597H1359.24V58.8084H1358.41V61.7597H1357.93V58.8084H1357.11V61.7597H1356.7V57.8475ZM1351.43 97.1757H1345V83.1054H1348.63V74.8004H1351.43V97.1757ZM1353.56 97.1757H1352.25V68.6919H1353.56V97.1757ZM1363.27 97.1757H1354.38V62.5833H1363.27V97.1757ZM1366.42 97.1757H1364.09V84.8213H1366.42V97.1757Z" fill="#949699"/>
<path d="M311.928 65.3288V62.5833H300.704V65.3288H298.034V97.9993H314.664V65.3288H311.928ZM301.525 63.407H311.106V65.3288H301.525V63.407ZM313.842 66.1524V66.5059H298.855V66.1524H313.842ZM298.855 97.1757V67.3295H303.988V97.1757H298.855ZM304.809 97.1757V67.3295H307.889V97.1757H304.809ZM308.71 97.1757V67.3295H313.842V97.1757H308.71Z" fill="#949699"/>
<path d="M303.235 67.8683H299.78V68.6919H303.235V67.8683Z" fill="#949699"/>
<path d="M303.235 70.0646H299.78V70.8882H303.235V70.0646Z" fill="#949699"/>
<path d="M303.235 72.261H299.78V73.0846H303.235V72.261Z" fill="#949699"/>
<path d="M303.235 74.4573H299.78V75.2809H303.235V74.4573Z" fill="#949699"/>
<path d="M303.235 76.6536H299.78V77.4773H303.235V76.6536Z" fill="#949699"/>
<path d="M303.235 78.85H299.78V79.6736H303.235V78.85Z" fill="#949699"/>
<path d="M303.235 81.0463H299.78V81.8699H303.235V81.0463Z" fill="#949699"/>
<path d="M303.235 83.2427H299.78V84.0663H303.235V83.2427Z" fill="#949699"/>
<path d="M303.235 85.439H299.78V86.2626H303.235V85.439Z" fill="#949699"/>
<path d="M303.235 87.6353H299.78V88.459H303.235V87.6353Z" fill="#949699"/>
<path d="M303.235 89.8317H299.78V90.6553H303.235V89.8317Z" fill="#949699"/>
<path d="M303.235 92.028H299.78V92.8516H303.235V92.028Z" fill="#949699"/>
<path d="M303.235 94.2243H299.78V95.048H303.235V94.2243Z" fill="#949699"/>
<path d="M313.021 67.8683H309.566V68.6919H313.021V67.8683Z" fill="#949699"/>
<path d="M313.021 70.0646H309.566V70.8882H313.021V70.0646Z" fill="#949699"/>
<path d="M313.021 72.261H309.566V73.0846H313.021V72.261Z" fill="#949699"/>
<path d="M313.021 74.4573H309.566V75.2809H313.021V74.4573Z" fill="#949699"/>
<path d="M313.021 76.6536H309.566V77.4773H313.021V76.6536Z" fill="#949699"/>
<path d="M313.021 78.85H309.566V79.6736H313.021V78.85Z" fill="#949699"/>
<path d="M313.021 81.0463H309.566V81.8699H313.021V81.0463Z" fill="#949699"/>
<path d="M313.021 83.2427H309.566V84.0663H313.021V83.2427Z" fill="#949699"/>
<path d="M313.021 85.439H309.566V86.2626H313.021V85.439Z" fill="#949699"/>
<path d="M313.021 87.6353H309.566V88.459H313.021V87.6353Z" fill="#949699"/>
<path d="M313.021 89.8317H309.566V90.6553H313.021V89.8317Z" fill="#949699"/>
<path d="M313.021 92.028H309.566V92.8516H313.021V92.028Z" fill="#949699"/>
<path d="M313.021 94.2243H309.566V95.048H313.021V94.2243Z" fill="#949699"/>
<path d="M306.993 63.9561H302.883V64.7797H306.993V63.9561Z" fill="#949699"/>
<path d="M309.748 63.9561H307.75V64.7797H309.748V63.9561Z" fill="#949699"/>
<path d="M1023.93 65.3288V62.5833H1012.7V65.3288H1010.03V97.9993H1026.66V65.3288H1023.93ZM1013.53 63.407H1023.11V65.3288H1013.53V63.407ZM1025.84 66.1524V66.5059H1010.85V66.1524H1025.84ZM1010.85 97.1757V67.3295H1015.99V97.1757H1010.85ZM1016.81 97.1757V67.3295H1019.89V97.1757H1016.81ZM1020.71 97.1757V67.3295H1025.84V97.1757H1020.71Z" fill="#949699"/>
<path d="M1015.23 67.8683H1011.78V68.6919H1015.23V67.8683Z" fill="#949699"/>
<path d="M1015.23 70.0646H1011.78V70.8882H1015.23V70.0646Z" fill="#949699"/>
<path d="M1015.23 72.261H1011.78V73.0846H1015.23V72.261Z" fill="#949699"/>
<path d="M1015.23 74.4573H1011.78V75.2809H1015.23V74.4573Z" fill="#949699"/>
<path d="M1015.23 76.6536H1011.78V77.4773H1015.23V76.6536Z" fill="#949699"/>
<path d="M1015.23 78.85H1011.78V79.6736H1015.23V78.85Z" fill="#949699"/>
<path d="M1015.23 81.0463H1011.78V81.8699H1015.23V81.0463Z" fill="#949699"/>
<path d="M1015.23 83.2427H1011.78V84.0663H1015.23V83.2427Z" fill="#949699"/>
<path d="M1015.23 85.439H1011.78V86.2626H1015.23V85.439Z" fill="#949699"/>
<path d="M1015.23 87.6353H1011.78V88.459H1015.23V87.6353Z" fill="#949699"/>
<path d="M1015.23 89.8317H1011.78V90.6553H1015.23V89.8317Z" fill="#949699"/>
<path d="M1015.23 92.028H1011.78V92.8516H1015.23V92.028Z" fill="#949699"/>
<path d="M1015.23 94.2243H1011.78V95.048H1015.23V94.2243Z" fill="#949699"/>
<path d="M1025.02 67.8683H1021.57V68.6919H1025.02V67.8683Z" fill="#949699"/>
<path d="M1025.02 70.0646H1021.57V70.8882H1025.02V70.0646Z" fill="#949699"/>
<path d="M1025.02 72.261H1021.57V73.0846H1025.02V72.261Z" fill="#949699"/>
<path d="M1025.02 74.4573H1021.57V75.2809H1025.02V74.4573Z" fill="#949699"/>
<path d="M1025.02 76.6536H1021.57V77.4773H1025.02V76.6536Z" fill="#949699"/>
<path d="M1025.02 78.85H1021.57V79.6736H1025.02V78.85Z" fill="#949699"/>
<path d="M1025.02 81.0463H1021.57V81.8699H1025.02V81.0463Z" fill="#949699"/>
<path d="M1025.02 83.2427H1021.57V84.0663H1025.02V83.2427Z" fill="#949699"/>
<path d="M1025.02 85.439H1021.57V86.2626H1025.02V85.439Z" fill="#949699"/>
<path d="M1025.02 87.6353H1021.57V88.459H1025.02V87.6353Z" fill="#949699"/>
<path d="M1025.02 89.8317H1021.57V90.6553H1025.02V89.8317Z" fill="#949699"/>
<path d="M1025.02 92.028H1021.57V92.8516H1025.02V92.028Z" fill="#949699"/>
<path d="M1025.02 94.2243H1021.57V95.048H1025.02V94.2243Z" fill="#949699"/>
<path d="M1018.99 63.9561H1014.88V64.7797H1018.99V63.9561Z" fill="#949699"/>
<path d="M1021.75 63.9561H1019.75V64.7797H1021.75V63.9561Z" fill="#949699"/>
<path d="M668.315 65.3288V62.5833H657.091V65.3288H654.421V97.9993H671.051V65.3288H668.315ZM657.912 63.407H667.493V65.3288H657.912V63.407ZM670.229 66.1524V66.5059H655.242V66.1524H670.229ZM655.242 97.1757V67.3295H660.375V97.1757H655.242ZM661.196 97.1757V67.3295H664.276V97.1757H661.196ZM665.097 97.1757V67.3295H670.229V97.1757H665.097Z" fill="#949699"/>
<path d="M659.622 67.8683H656.167V68.6919H659.622V67.8683Z" fill="#949699"/>
<path d="M659.622 70.0646H656.167V70.8882H659.622V70.0646Z" fill="#949699"/>
<path d="M659.622 72.261H656.167V73.0846H659.622V72.261Z" fill="#949699"/>
<path d="M659.622 74.4573H656.167V75.2809H659.622V74.4573Z" fill="#949699"/>
<path d="M659.622 76.6536H656.167V77.4773H659.622V76.6536Z" fill="#949699"/>
<path d="M659.622 78.85H656.167V79.6736H659.622V78.85Z" fill="#949699"/>
<path d="M659.622 81.0463H656.167V81.8699H659.622V81.0463Z" fill="#949699"/>
<path d="M659.622 83.2427H656.167V84.0663H659.622V83.2427Z" fill="#949699"/>
<path d="M659.622 85.439H656.167V86.2626H659.622V85.439Z" fill="#949699"/>
<path d="M659.622 87.6353H656.167V88.459H659.622V87.6353Z" fill="#949699"/>
<path d="M659.622 89.8317H656.167V90.6553H659.622V89.8317Z" fill="#949699"/>
<path d="M659.622 92.028H656.167V92.8516H659.622V92.028Z" fill="#949699"/>
<path d="M659.622 94.2243H656.167V95.048H659.622V94.2243Z" fill="#949699"/>
<path d="M669.408 67.8683H665.953V68.6919H669.408V67.8683Z" fill="#949699"/>
<path d="M669.408 70.0646H665.953V70.8882H669.408V70.0646Z" fill="#949699"/>
<path d="M669.408 72.261H665.953V73.0846H669.408V72.261Z" fill="#949699"/>
<path d="M669.408 74.4573H665.953V75.2809H669.408V74.4573Z" fill="#949699"/>
<path d="M669.408 76.6536H665.953V77.4773H669.408V76.6536Z" fill="#949699"/>
<path d="M669.408 78.85H665.953V79.6736H669.408V78.85Z" fill="#949699"/>
<path d="M669.408 81.0463H665.953V81.8699H669.408V81.0463Z" fill="#949699"/>
<path d="M669.408 83.2427H665.953V84.0663H669.408V83.2427Z" fill="#949699"/>
<path d="M669.408 85.439H665.953V86.2626H669.408V85.439Z" fill="#949699"/>
<path d="M669.408 87.6353H665.953V88.459H669.408V87.6353Z" fill="#949699"/>
<path d="M669.408 89.8317H665.953V90.6553H669.408V89.8317Z" fill="#949699"/>
<path d="M669.408 92.028H665.953V92.8516H669.408V92.028Z" fill="#949699"/>
<path d="M669.408 94.2243H665.953V95.048H669.408V94.2243Z" fill="#949699"/>
<path d="M663.38 63.9561H659.27V64.7797H663.38V63.9561Z" fill="#949699"/>
<path d="M666.135 63.9561H664.137V64.7797H666.135V63.9561Z" fill="#949699"/>
<path d="M1380.31 65.3288V62.5833H1369.09V65.3288H1366.42V97.9993H1383.05V65.3288H1380.31ZM1369.91 63.407H1379.49V65.3288H1369.91V63.407ZM1382.23 66.1524V66.5059H1367.24V66.1524H1382.23ZM1367.24 97.1757V67.3295H1372.37V97.1757H1367.24ZM1373.2 97.1757V67.3295H1376.28V97.1757H1373.2ZM1377.1 97.1757V67.3295H1382.23V97.1757H1377.1Z" fill="#949699"/>
<path d="M1371.62 67.8683H1368.17V68.6919H1371.62V67.8683Z" fill="#949699"/>
<path d="M1371.62 70.0646H1368.17V70.8882H1371.62V70.0646Z" fill="#949699"/>
<path d="M1371.62 72.261H1368.17V73.0846H1371.62V72.261Z" fill="#949699"/>
<path d="M1371.62 74.4573H1368.17V75.2809H1371.62V74.4573Z" fill="#949699"/>
<path d="M1371.62 76.6536H1368.17V77.4773H1371.62V76.6536Z" fill="#949699"/>
<path d="M1371.62 78.85H1368.17V79.6736H1371.62V78.85Z" fill="#949699"/>
<path d="M1371.62 81.0463H1368.17V81.8699H1371.62V81.0463Z" fill="#949699"/>
<path d="M1371.62 83.2427H1368.17V84.0663H1371.62V83.2427Z" fill="#949699"/>
<path d="M1371.62 85.439H1368.17V86.2626H1371.62V85.439Z" fill="#949699"/>
<path d="M1371.62 87.6353H1368.17V88.459H1371.62V87.6353Z" fill="#949699"/>
<path d="M1371.62 89.8317H1368.17V90.6553H1371.62V89.8317Z" fill="#949699"/>
<path d="M1371.62 92.028H1368.17V92.8516H1371.62V92.028Z" fill="#949699"/>
<path d="M1371.62 94.2243H1368.17V95.048H1371.62V94.2243Z" fill="#949699"/>
<path d="M1381.41 67.8683H1377.95V68.6919H1381.41V67.8683Z" fill="#949699"/>
<path d="M1381.41 70.0646H1377.95V70.8882H1381.41V70.0646Z" fill="#949699"/>
<path d="M1381.41 72.261H1377.95V73.0846H1381.41V72.261Z" fill="#949699"/>
<path d="M1381.41 74.4573H1377.95V75.2809H1381.41V74.4573Z" fill="#949699"/>
<path d="M1381.41 76.6536H1377.95V77.4773H1381.41V76.6536Z" fill="#949699"/>
<path d="M1381.41 78.85H1377.95V79.6736H1381.41V78.85Z" fill="#949699"/>
<path d="M1381.41 81.0463H1377.95V81.8699H1381.41V81.0463Z" fill="#949699"/>
<path d="M1381.41 83.2427H1377.95V84.0663H1381.41V83.2427Z" fill="#949699"/>
<path d="M1381.41 85.439H1377.95V86.2626H1381.41V85.439Z" fill="#949699"/>
<path d="M1381.41 87.6353H1377.95V88.459H1381.41V87.6353Z" fill="#949699"/>
<path d="M1381.41 89.8317H1377.95V90.6553H1381.41V89.8317Z" fill="#949699"/>
<path d="M1381.41 92.028H1377.95V92.8516H1381.41V92.028Z" fill="#949699"/>
<path d="M1381.41 94.2243H1377.95V95.048H1381.41V94.2243Z" fill="#949699"/>
<path d="M1375.38 63.9561H1371.27V64.7797H1375.38V63.9561Z" fill="#949699"/>
<path d="M1378.13 63.9561H1376.14V64.7797H1378.13V63.9561Z" fill="#949699"/>
<path d="M316.58 85.3017H315.759V95.9402H316.58V85.3017Z" fill="#949699"/>
<path d="M318.907 85.3017H318.085V95.9402H318.907V85.3017Z" fill="#949699"/>
<path d="M332.32 83.2427V86.3999H331.02V61.3424L326.571 55.671L322.123 61.3424V86.3999H320.823V83.2427H313.842V97.9993H339.3V83.2427H332.32ZM320.002 97.1757H314.664V84.0663H320.002V97.1757ZM332.32 97.1757H320.823V87.2235H322.944V61.6279L326.571 57.004L330.198 61.6279V87.2235H332.32V97.1757ZM338.479 97.1757H333.141V84.0663H338.479V97.1757Z" fill="#949699"/>
<path d="M335.057 85.3017H334.236V95.9402H335.057V85.3017Z" fill="#949699"/>
<path d="M337.384 85.3017H336.563V95.9402H337.384V85.3017Z" fill="#949699"/>
<path d="M324.176 62.5147V96.3521H328.967V62.5147H324.176ZM324.997 95.5284V63.3383H325.545V95.5284H324.997ZM326.366 95.5284V63.3383H326.777V95.5284H326.366ZM328.145 63.3383V95.5284H327.598V63.3383H328.145Z" fill="#949699"/>
<path d="M1028.58 85.3017H1027.76V95.9402H1028.58V85.3017Z" fill="#949699"/>
<path d="M1030.91 85.3017H1030.09V95.9402H1030.91V85.3017Z" fill="#949699"/>
<path d="M1044.32 83.2427V86.3999H1043.02V61.3424L1038.57 55.671L1034.12 61.3424V86.3999H1032.82V83.2427H1025.84V97.9993H1051.3V83.2427H1044.32ZM1032 97.1757H1026.66V84.0663H1032V97.1757ZM1044.32 97.1757H1032.82V87.2235H1034.94V61.6279L1038.57 57.004L1042.2 61.6279V87.2235H1044.32V97.1757ZM1050.48 97.1757H1045.14V84.0663H1050.48V97.1757Z" fill="#949699"/>
<path d="M1047.06 85.3017H1046.24V95.9402H1047.06V85.3017Z" fill="#949699"/>
<path d="M1049.38 85.3017H1048.56V95.9402H1049.38V85.3017Z" fill="#949699"/>
<path d="M1036.18 62.5147V96.3521H1040.97V62.5147H1036.18ZM1037 95.5284V63.3383H1037.54V95.5284H1037ZM1038.37 95.5284V63.3383H1038.78V95.5284H1038.37ZM1040.15 63.3383V95.5284H1039.6V63.3383H1040.15Z" fill="#949699"/>
<path d="M672.967 85.3017H672.146V95.9402H672.967V85.3017Z" fill="#949699"/>
<path d="M675.294 85.3017H674.472V95.9402H675.294V85.3017Z" fill="#949699"/>
<path d="M688.707 83.2427V86.3999H687.407V61.3424L682.958 55.671L678.51 61.3424V86.3999H677.21V83.2427H670.229V97.9993H695.687V83.2427H688.707ZM676.389 97.1757H671.051V84.0663H676.389V97.1757ZM688.707 97.1757H677.21V87.2235H679.331V61.6279L682.958 57.004L686.586 61.6279V87.2235H688.707V97.1757ZM694.866 97.1757H689.528V84.0663H694.866V97.1757Z" fill="#949699"/>
<path d="M691.444 85.3017H690.623V95.9402H691.444V85.3017Z" fill="#949699"/>
<path d="M693.771 85.3017H692.95V95.9402H693.771V85.3017Z" fill="#949699"/>
<path d="M680.563 62.5147V96.3521H685.354V62.5147H680.563ZM681.384 95.5284V63.3383H681.932V95.5284H681.384ZM682.753 95.5284V63.3383H683.164V95.5284H682.753ZM684.532 63.3383V95.5284H683.985V63.3383H684.532Z" fill="#949699"/>
<path d="M1384.97 85.3017H1384.15V95.9402H1384.97V85.3017Z" fill="#949699"/>
<path d="M1387.29 85.3017H1386.47V95.9402H1387.29V85.3017Z" fill="#949699"/>
<path d="M1400.71 83.2427V86.3999H1399.41V61.3424L1394.96 55.671L1390.51 61.3424V86.3999H1389.21V83.2427H1382.23V97.9993H1407.69V83.2427H1400.71ZM1388.39 97.1757H1383.05V84.0663H1388.39V97.1757ZM1400.71 97.1757H1389.21V87.2235H1391.33V61.6279L1394.96 57.004L1398.59 61.6279V87.2235H1400.71V97.1757ZM1406.87 97.1757H1401.53V84.0663H1406.87V97.1757Z" fill="#949699"/>
<path d="M1403.44 85.3017H1402.62V95.9402H1403.44V85.3017Z" fill="#949699"/>
<path d="M1405.77 85.3017H1404.95V95.9402H1405.77V85.3017Z" fill="#949699"/>
<path d="M1392.56 62.5147V96.3521H1397.35V62.5147H1392.56ZM1393.38 95.5284V63.3383H1393.93V95.5284H1393.38ZM1394.75 95.5284V63.3383H1395.16V95.5284H1394.75ZM1396.53 63.3383V95.5284H1395.98V63.3383H1396.53Z" fill="#949699"/>
<path d="M348.402 76.5849V72.9816H341.49V76.5849H338.445V97.9993H362.363V76.5849H348.402ZM342.312 73.8052H347.581V76.5506H342.312V73.8052ZM361.542 77.4086V78.2926H339.266V77.4086H361.542ZM339.266 97.1756V79.1162H361.542V97.1756H339.266Z" fill="#949699"/>
<path d="M358.904 80.257H341.887V81.0806H358.904V80.257Z" fill="#949699"/>
<path d="M346.759 83.7402H341.887V84.5638H346.759V83.7402Z" fill="#949699"/>
<path d="M358.904 87.2235H341.887V88.0471H358.904V87.2235Z" fill="#949699"/>
<path d="M346.759 90.7067H341.887V91.5304H346.759V90.7067Z" fill="#949699"/>
<path d="M352.85 83.7402H347.977V84.5638H352.85V83.7402Z" fill="#949699"/>
<path d="M352.85 90.7067H347.977V91.5304H352.85V90.7067Z" fill="#949699"/>
<path d="M358.872 83.7402H354V84.5638H358.872V83.7402Z" fill="#949699"/>
<path d="M358.872 90.7067H354V91.5304H358.872V90.7067Z" fill="#949699"/>
<path d="M358.904 94.19H341.887V95.0136H358.904V94.19Z" fill="#949699"/>
<path d="M1060.4 76.5849V72.9816H1053.49V76.5849H1050.44V97.9993H1074.36V76.5849H1060.4ZM1054.31 73.8052H1059.58V76.5506H1054.31V73.8052ZM1073.54 77.4086V78.2926H1051.27V77.4086H1073.54ZM1051.27 97.1756V79.1162H1073.54V97.1756H1051.27Z" fill="#949699"/>
<path d="M1070.9 80.257H1053.89V81.0806H1070.9V80.257Z" fill="#949699"/>
<path d="M1058.76 83.7402H1053.89V84.5638H1058.76V83.7402Z" fill="#949699"/>
<path d="M1070.9 87.2235H1053.89V88.0471H1070.9V87.2235Z" fill="#949699"/>
<path d="M1058.76 90.7067H1053.89V91.5304H1058.76V90.7067Z" fill="#949699"/>
<path d="M1064.85 83.7402H1059.98V84.5638H1064.85V83.7402Z" fill="#949699"/>
<path d="M1064.85 90.7067H1059.98V91.5304H1064.85V90.7067Z" fill="#949699"/>
<path d="M1070.87 83.7402H1066V84.5638H1070.87V83.7402Z" fill="#949699"/>
<path d="M1070.87 90.7067H1066V91.5304H1070.87V90.7067Z" fill="#949699"/>
<path d="M1070.9 94.19H1053.89V95.0136H1070.9V94.19Z" fill="#949699"/>
<path d="M704.789 76.5849V72.9816H697.877V76.5849H694.832V97.9993H718.75V76.5849H704.789ZM698.699 73.8052H703.968V76.5506H698.699V73.8052ZM717.929 77.4086V78.2926H695.653V77.4086H717.929ZM695.653 97.1756V79.1162H717.929V97.1756H695.653Z" fill="#949699"/>
<path d="M715.292 80.257H698.274V81.0806H715.292V80.257Z" fill="#949699"/>
<path d="M703.146 83.7402H698.274V84.5638H703.146V83.7402Z" fill="#949699"/>
<path d="M715.292 87.2235H698.274V88.0471H715.292V87.2235Z" fill="#949699"/>
<path d="M703.146 90.7067H698.274V91.5304H703.146V90.7067Z" fill="#949699"/>
<path d="M709.237 83.7402H704.364V84.5638H709.237V83.7402Z" fill="#949699"/>
<path d="M709.237 90.7067H704.364V91.5304H709.237V90.7067Z" fill="#949699"/>
<path d="M715.259 83.7402H710.387V84.5638H715.259V83.7402Z" fill="#949699"/>
<path d="M715.259 90.7067H710.387V91.5304H715.259V90.7067Z" fill="#949699"/>
<path d="M715.292 94.19H698.274V95.0136H715.292V94.19Z" fill="#949699"/>
<path d="M1416.79 76.5849V72.9816H1409.88V76.5849H1406.83V97.9993H1430.75V76.5849H1416.79ZM1410.7 73.8052H1415.97V76.5506H1410.7V73.8052ZM1429.93 77.4086V78.2926H1407.65V77.4086H1429.93ZM1407.65 97.1756V79.1162H1429.93V97.1756H1407.65Z" fill="#949699"/>
<path d="M1427.29 80.257H1410.27V81.0806H1427.29V80.257Z" fill="#949699"/>
<path d="M1415.15 83.7402H1410.27V84.5638H1415.15V83.7402Z" fill="#949699"/>
<path d="M1427.29 87.2235H1410.27V88.0471H1427.29V87.2235Z" fill="#949699"/>
<path d="M1415.15 90.7067H1410.27V91.5304H1415.15V90.7067Z" fill="#949699"/>
<path d="M1421.24 83.7402H1416.36V84.5638H1421.24V83.7402Z" fill="#949699"/>
<path d="M1421.24 90.7067H1416.36V91.5304H1421.24V90.7067Z" fill="#949699"/>
<path d="M1427.26 83.7402H1422.39V84.5638H1427.26V83.7402Z" fill="#949699"/>
<path d="M1427.26 90.7067H1422.39V91.5304H1427.26V90.7067Z" fill="#949699"/>
<path d="M1427.29 94.19H1410.27V95.0136H1427.29V94.19Z" fill="#949699"/>
<path d="M371.613 97.1756H0V97.9992H371.613V97.1756Z" fill="#949699"/>
<path d="M1083.61 97.1756H712V97.9992H1083.61V97.1756Z" fill="#949699"/>
<path d="M728 97.1756H356.387V97.9992H728V97.1756Z" fill="#949699"/>
<path d="M1440 97.1756H1068.39V97.9992H1440V97.1756Z" fill="#949699"/>
</g>
</svg>
