<svg width="26" height="26" viewBox="0 0 26 26" fill="none" xmlns="http://www.w3.org/2000/svg">
<path d="M21.2939 0C23.8929 0 26 2.10712 26 4.70605V21.2939C26 23.8929 23.8929 26 21.2939 26H4.70605C2.10712 26 0 23.8929 0 21.2939V4.70605C0 2.10712 2.10712 0 4.70605 0H21.2939ZM12.9971 3.63281V15.9199C12.9971 17.3512 11.8287 18.5126 10.3906 18.5127C10.0245 18.5127 9.67354 18.4357 9.35645 18.2988L9.22266 18.2363L9.06641 18.1514C8.30153 17.7001 7.79102 16.8626 7.79102 15.9131C7.79127 14.4752 8.95955 13.3145 10.3975 13.3145C10.6742 13.3145 10.9377 13.3545 11.1875 13.4355V10.2959C10.931 10.2622 10.6675 10.2422 10.4043 10.2422C7.2582 10.2422 4.71305 12.7874 4.71289 15.9268C4.71289 17.8982 5.71152 19.6338 7.2373 20.6533C6.23141 19.6272 5.61726 18.2227 5.61719 16.6768L5.62402 16.958C5.69594 18.3899 6.3006 19.6844 7.2373 20.6465C8.142 21.2541 9.23629 21.6055 10.4043 21.6055C13.5436 21.6053 16.0957 19.0593 16.0957 15.9199V9.64844C17.3042 10.5125 18.7896 11.0186 20.3828 11.0186V7.94043C19.5794 7.94043 18.7893 7.71734 18.1074 7.29199C18.2584 7.45634 18.4212 7.60787 18.5938 7.74609C18.4203 7.60721 18.2574 7.45564 18.1074 7.29199C17.088 6.65735 16.3586 5.6106 16.1426 4.38184C16.1224 4.26723 16.1092 4.14586 16.0957 4.03125V3.63281H12.9971ZM13.9014 16.6699C13.9013 18.1011 12.7329 19.2627 11.2949 19.2627C12.7262 19.2627 13.8945 18.1011 13.9014 16.6699Z" fill="#242124"/>
</svg>
