<svg width="26" height="26" viewBox="0 0 26 26" fill="none" xmlns="http://www.w3.org/2000/svg">
<path d="M5.0928 0C2.29216 0 0 2.29211 0 5.0928V20.8967C0 23.6973 2.29211 25.9886 5.0928 25.9886H20.8967C23.6973 25.9886 25.9886 23.6973 25.9886 20.8967V5.0928C25.9886 2.29216 23.6973 0 20.8967 0H5.0928ZM6.37372 4.28865C7.71657 4.28865 8.5437 5.1702 8.56924 6.329C8.56924 7.46221 7.71651 8.36854 6.34774 8.36854H6.32255C5.00526 8.36854 4.15384 7.46226 4.15384 6.329C4.15384 5.17023 5.03103 4.28865 6.37369 4.28865H6.37372ZM17.9458 9.70471C20.5284 9.70471 22.4643 11.3927 22.4643 15.02V21.7917H18.5396V15.4741C18.5396 13.8865 17.9715 12.8034 16.5512 12.8034C15.4669 12.8034 14.8206 13.5334 14.5368 14.2386C14.4331 14.4909 14.4077 14.8433 14.4077 15.1963V21.7917H10.4829C10.4829 21.7917 10.5344 11.0898 10.4829 9.98166H14.4085V11.6541C14.93 10.8494 15.863 9.70468 17.9458 9.70468V9.70471ZM4.38534 9.98252H8.31012V21.7918H4.38534V9.98252Z" fill="#242124"/>
</svg>
